<?xml version="1.0" standalone="no"?>
<!DOCTYPE svg PUBLIC "-//W3C//DTD SVG 1.1//EN" "http://www.w3.org/Graphics/SVG/1.1/DTD/svg11.dtd" >
<svg xmlns="http://www.w3.org/2000/svg">
<metadata></metadata>
<defs>
<font id="knemabold" horiz-adv-x="1073" >
<font-face units-per-em="2048" ascent="1536" descent="-512" />
<missing-glyph horiz-adv-x="446" />
<glyph unicode="&#xfb01;" horiz-adv-x="1122" d="M37 805v229h82v76q0 -2 4 38t28.5 87t78 85t149.5 36h512q0 -4 -1 -34t-3 -65q-2 -39 -2 -90h-340q-31 -2 -56.5 -8t-46 -19.5t-31 -39t-10.5 -66.5h551v-1034h-282v805h-269v-803h-282v803h-82z" />
<glyph unicode="&#xfb02;" horiz-adv-x="987" d="M37 805v229h82v76q0 -2 4 38t28.5 87t78 85t149.5 36q39 -2 78 -10.5t73.5 -19.5t61 -23.5t43.5 -20.5v74h283v-1356h-283v1079q-10 2 -41 12.5t-68 18.5t-71.5 10t-53.5 -10v-76h154v-229h-154v-803h-282v803h-82z" />
<glyph unicode="&#xfb03;" horiz-adv-x="1466" d="M37 805v229h82v76q0 -2 4 38t28.5 87t78 85t149.5 36q49 -2 95 -12.5t82 -23.5t57.5 -25.5t21.5 -16.5t-11.5 -31.5t-23.5 -62.5q-14 -39 -33 -88q-33 12 -63 20q-27 6 -55.5 7t-47.5 -13v-76h222v76q0 -2 4 38t28.5 87t77.5 85t150 36h440q0 -4 -1 -34t-3 -65 q-2 -39 -2 -90h-268q-31 -2 -56.5 -8t-46 -19.5t-31 -39t-10.5 -66.5h479v-1034h-282v805h-197v-803h-282v803h-222v-803h-282v803h-82z" />
<glyph unicode="&#xfb04;" horiz-adv-x="1521" d="M37 805v229h82v76q0 -2 4 38t28.5 87t78 85t149.5 36q49 -2 95 -12.5t82 -23.5t57.5 -25.5t21.5 -16.5t-11.5 -31.5t-23.5 -62.5q-14 -39 -33 -88q-33 12 -63 20q-27 6 -55.5 7t-47.5 -13v-76h277v76q0 -2 4 38t28.5 87t78 85t149.5 36q39 -2 78 -10.5t73.5 -19.5 t61.5 -23.5t43 -20.5v74h283v-1356h-283v1079q-10 2 -41 12.5t-67.5 18.5t-71.5 10t-53 -10v-76h153v-229h-153v-803h-283v803h-277v-803h-282v803h-82z" />
<glyph horiz-adv-x="0" />
<glyph unicode="&#xd;" horiz-adv-x="446" />
<glyph unicode=" "  horiz-adv-x="446" />
<glyph unicode="&#x09;" horiz-adv-x="446" />
<glyph unicode="&#xa0;" horiz-adv-x="446" />
<glyph unicode="!" horiz-adv-x="415" d="M39 1356h352l-59 -967h-232l-32 483q-6 90 -11.5 177.5t-9.5 155t-5 88.5zM70 10h282v262h-282v-262z" />
<glyph unicode="&#x22;" horiz-adv-x="772" d="M47 1028v262h283v-262q-4 -27 -15 -51q-10 -23 -27.5 -46.5t-47.5 -39.5l-134 43q2 4 10.5 14t14.5 23.5t6 29t-12 27.5h-78zM410 1026v262h282v-262q-4 -27 -14 -51q-10 -23 -27.5 -46.5t-48.5 -39.5l-133 43q2 4 10 14t14.5 23.5t6.5 29t-13 27.5h-77z" />
<glyph unicode="#" horiz-adv-x="1333" d="M37 346v227h231l78 234h-305v227h381l108 322h246l-108 -322h245l109 322h246l-109 -322h121v-227h-197l-79 -234h272v-227h-348l-115 -338h-244l113 338h-246l-112 -338h-246l115 338h-156zM514 573h246l78 234h-246z" />
<glyph unicode="$" horiz-adv-x="1067" d="M49 336l291 110q10 -18 21.5 -40.5t31 -46t51 -45t82.5 -35.5q37 -10 69 0t55.5 31.5t36.5 50t15 53.5q2 31 -17 54.5t-51 38.5t-72 21.5t-79 3.5q-41 -4 -109.5 6.5t-135 48.5t-114.5 111.5t-44 198.5q2 98 26.5 168t67.5 117t104.5 74.5t139.5 39.5v99h282v-99 q63 -14 111.5 -37.5t81.5 -46.5q37 -27 65 -57l-213 -215q-25 39 -59 68q-29 25 -73 43t-103 12q-27 -4 -53.5 -17.5t-46 -36t-30.5 -54t-9 -70.5q2 -43 30.5 -63.5t64.5 -29t70.5 -10.5t47.5 -4q8 -2 38.5 -4t72.5 -9t91.5 -21.5t94.5 -41t80.5 -67.5t52.5 -103 q16 -61 11 -140t-40 -154.5t-104.5 -137t-180.5 -88.5v-198h-282v196q-117 23 -188.5 77t-112.5 110q-47 66 -68 139z" />
<glyph unicode="%" horiz-adv-x="1159" d="M51 1026q0 61 17.5 114.5t47 93.5t68.5 62.5t84 22.5t85 -22.5t70 -62.5t47 -93.5t17 -114.5q0 -59 -17 -112.5t-47 -93.5t-70 -62.5t-85 -22.5t-84 22.5t-68.5 62.5t-47 93.5t-17.5 112.5zM162 1028q0 -59 31.5 -103t78.5 -44t79 44t32 103q0 61 -32 105.5t-79 44.5 t-78.5 -44.5t-31.5 -105.5zM186 2l523 1356h282l-522 -1356h-283zM672 317q0 61 17.5 114.5t47 93.5t68.5 62.5t84 22.5t85 -22.5t69.5 -62.5t47 -93t17.5 -115q0 -59 -17.5 -112t-47 -93t-69.5 -62.5t-85 -22.5t-84 22.5t-68.5 62.5t-47 93t-17.5 112zM782 319 q0 -59 32 -103t79 -44t79 44t32 103q0 61 -32 105.5t-79 44.5t-79 -44.5t-32 -105.5z" />
<glyph unicode="&#x26;" horiz-adv-x="1107" d="M31 326q-4 82 21.5 141t62.5 101t76.5 68t66.5 38q-29 29 -60.5 56.5t-58 64t-44 86t-15.5 120.5q2 86 27.5 145.5t64.5 98.5t86 60.5t92 32t83 12.5t61 2q59 0 117.5 -16.5t103.5 -57.5t70.5 -107.5t21.5 -166.5q-4 -90 -29.5 -148.5t-62.5 -95.5t-80 -57.5t-82 -38.5 l131 -115q23 59 58.5 100t70.5 68q39 31 82 49l180 -117q-39 -14 -76 -49q-35 -29 -73.5 -81t-73.5 -134q43 -41 80 -78t64.5 -63.5t43.5 -41.5l15 -14q0 2 -21.5 -27.5t-48.5 -66.5q-31 -43 -70 -100q-20 23 -59 65.5t-88 96.5q-43 -74 -106.5 -112t-121 -52.5t-98.5 -13.5 l-41 2q0 2 -26.5 3t-66.5 10t-87 29.5t-89 58.5t-70.5 97.5t-30.5 147.5zM301 318.5q10 -48.5 35.5 -78t42.5 -29.5q14 0 38.5 -3t52.5 6t57.5 40t54.5 100l-189 199q-68 -63 -85 -124.5t-7 -110zM326 963q4 -55 36.5 -94.5t73.5 -75.5q59 29 99 70.5t43 103.5 q0 27 -1.5 59.5t-11.5 62t-32.5 50t-61.5 22.5q-55 2 -86 -16.5t-44 -49t-15 -66t0 -66.5z" />
<glyph unicode="'" horiz-adv-x="403" d="M47 1028v262h283v-262q-4 -27 -15 -51q-10 -23 -27.5 -46.5t-47.5 -39.5l-134 43q2 4 10.5 14t14.5 23.5t6 29t-12 27.5h-78z" />
<glyph unicode="(" horiz-adv-x="860" d="M279 547q0 182 31.5 315t77.5 226.5t100.5 150.5t100.5 90t73.5 45.5t23.5 14.5q-8 2 17.5 -24t58.5 -58l88 -88q-84 -59 -152 -156q-57 -82 -103 -212t-46 -314q0 -186 45 -312.5t100 -204.5q66 -92 148 -145l-152 -143q-117 37 -207 135q-39 43 -75.5 103.5 t-65.5 143.5t-46 190.5t-17 242.5z" />
<glyph unicode=")" horiz-adv-x="724" d="M63 1219l89 88q33 33 57 59.5t18 22.5q-4 -2 24 -14.5t74 -45.5t100 -90t100 -150.5t78 -226.5t32 -315q0 -135 -18.5 -242.5t-47 -190.5t-65.5 -143.5t-76 -103.5q-90 -98 -205 -135l-151 143q80 53 145 145q55 78 101.5 204t46.5 313q0 184 -47.5 314t-104.5 212 q-68 96 -150 156z" />
<glyph unicode="*" horiz-adv-x="800" d="M45 1075l156 156q-2 2 16.5 -19.5t44 -54.5t56 -73t53.5 -72q-8 39 -18.5 87t-19.5 89t-15.5 68.5t-6.5 25.5h221l-20 -98q-10 -41 -19.5 -88t-17.5 -82q20 31 47 69.5t49.5 72.5t36.5 56l15 21l155 -156q-55 -31 -108 -59q-45 -25 -91.5 -52.5t-74.5 -45.5 q33 -23 77 -45.5t84 -40t66.5 -27.5t24.5 -6l-156 -156q-25 23 -47 47q-20 23 -42 48.5t-38 54.5q6 -31 16.5 -71t20.5 -75q10 -41 22 -82h-221q0 -4 6.5 18.5t15.5 57.5t19 76t17 76q-18 -29 -45 -55.5t-50 -47.5q-29 -23 -57 -45l-156 156q-4 -4 26 6t73 27.5t91 40 t81 45.5q-29 18 -77 43.5t-95 50.5q-53 29 -115 59z" />
<glyph unicode="+" horiz-adv-x="1130" d="M51 524v230h357v356h229v-356h381v-230h-381v-381h-229v381h-357z" />
<glyph unicode="," horiz-adv-x="393" d="M47 0v262h283v-262q-4 -27 -15 -51q-10 -23 -27.5 -46.5t-47.5 -39.5l-134 43q2 4 10.5 14t14.5 23.5t6 29t-12 27.5h-78z" />
<glyph unicode="-" horiz-adv-x="1097" d="M51 524v230h967v-230h-967z" />
<glyph unicode="." horiz-adv-x="356" d="M47 0v262h283v-262h-283z" />
<glyph unicode="/" horiz-adv-x="1026" d="M86 0l522 1356h283l-522 -1356h-283z" />
<glyph unicode="0" horiz-adv-x="976" d="M39 710q-2 81 0 158q0 88 20.5 155t52 115t72.5 80.5t84 53.5q98 47 226 49q84 0 146 -19.5t108.5 -52t77 -72.5t48.5 -83q45 -98 46 -226v-452q0 -88 -19.5 -152.5t-49.5 -111t-69 -75t-80 -46.5q-96 -41 -215 -35q-74 0 -132 17.5t-103 47t-78 66.5t-55 76 q-53 92 -72 209q-2 74 -4 151q-2 66 -4 147zM321 679q1 -44 3 -81q2 -43 2 -82q2 -63 20 -115q16 -43 49 -78.5t92 -33.5q43 -4 78 18q29 18 52.5 66.5t25.5 144.5v248q-2 70 -18 123q-14 47 -45 85t-88 40q-47 -2 -84 -27q-33 -23 -59.5 -73t-26.5 -148q-2 -43 -1 -87z" />
<glyph unicode="1" horiz-adv-x="600" d="M66 1266l186 90h283v-1356h-283v1120l-127 -63z" />
<glyph unicode="2" horiz-adv-x="976" d="M31 262q168 115 301 230q57 49 111.5 102t99.5 107.5t73.5 106.5t34.5 99q4 43 1 84t-19.5 75t-47 54.5t-79.5 20.5q-59 0 -98 -20.5t-64 -61.5t-39 -104.5t-29 -149.5l-239 129q10 121 59 217q20 41 52 80t77 68.5t105.5 47t140.5 17.5q150 -2 239 -40t136 -93 t60.5 -119.5t10 -121t-13.5 -94.5t-10 -40q-4 -18 -31.5 -86t-89 -156t-159 -182t-240.5 -166l542 2v-264h-880z" />
<glyph unicode="3" horiz-adv-x="980" d="M27 362l274 115q-2 -78 18 -135q8 -25 22.5 -48.5t36 -42t51.5 -28.5t71 -8q55 2 91 27.5t51 63.5t9 82t-31.5 81t-70.5 60.5t-111 23.5l-2 244q49 0 88 14q35 12 61.5 41t26.5 88q-2 70 -26.5 105.5t-55.5 52.5q-37 18 -81 18q-59 0 -95.5 -31.5t-56.5 -70.5 q-23 -45 -35 -101l-203 107q20 90 70 160q20 31 49 59.5t66 51t85 36.5t109 16q121 2 206 -20.5t138.5 -69.5t80 -117.5t30.5 -162.5q4 -78 -26.5 -130t-67.5 -83q-43 -37 -101 -55q70 -16 123 -60q47 -37 85 -106.5t36 -186.5q0 -80 -25.5 -136t-65.5 -94t-89 -61.5 t-96.5 -35t-86 -15.5t-61.5 -4q-111 0 -195.5 17.5t-145 58.5t-98.5 109.5t-52 170.5z" />
<glyph unicode="4" horiz-adv-x="985" d="M66 387v272l24 30q23 30 60.5 78t86 110.5t97.5 128.5l266 348h297v-695h70v-272h-70v-387h-293v387h-538zM340 659h264v330z" />
<glyph unicode="5" horiz-adv-x="1132" d="M102 236l127 241q45 -70 94.5 -106.5t90.5 -53.5q49 -20 94 -22q72 -2 127 14q47 14 85 49t36 107q-2 39 -19.5 67.5t-45 49t-61.5 32t-71 17.5q-84 14 -190 8l-222 -6q-2 205 -2 364q0 68 -1 133.5t-1 115.5v81v31l35 -1t92.5 -1h130h150.5q178 0 407 2v-215l-524 -6 l4 -238l164 -4q119 -8 215 -57q41 -23 80 -54.5t69.5 -79t50 -111t21.5 -147.5q2 -145 -49 -233t-131 -135t-175 -62.5t-179 -15.5q-86 0 -160 36t-127 81q-63 53 -115 119z" />
<glyph unicode="6" horiz-adv-x="972" d="M53 426v479q-2 121 45 219q20 41 52 82t81.5 75t117 56.5t157.5 26.5q100 4 171 -24.5t118 -75.5t75.5 -104.5t43 -106.5t18.5 -83l4 -34q0 -2 -45 -14.5t-98.5 -26.5t-98.5 -25.5t-45 -9.5t-3 40t-17.5 82t-45 79t-85.5 33q-29 -2 -55.5 -8.5t-49 -27t-37 -57 t-16.5 -100.5q-4 -92 0 -233q20 35 61 61q35 23 97.5 40t165.5 11q57 -4 99 -20.5t71.5 -42t49 -56t31.5 -63.5q27 -76 25 -168q4 -115 -41 -207q-18 -39 -50 -76.5t-80 -68.5t-115.5 -50.5t-159.5 -21.5q-74 -2 -132.5 15.5t-103.5 46t-78 66.5t-55 79q-53 94 -72 213z M373 422q4 -68 25.5 -103.5t47.5 -52.5q31 -20 68 -20q4 0 26.5 8t49 27.5t46 54.5t17.5 90q-4 53 -26.5 81t-48.5 38q-31 12 -70 8t-70 -21q-27 -14 -48 -39.5t-17 -70.5z" />
<glyph unicode="7" horiz-adv-x="901" d="M41 1137v221h840l-373 -1358h-270q59 227 112 438q23 90 47.5 185.5t49 186.5t47 174t41.5 146z" />
<glyph unicode="8" horiz-adv-x="1095" d="M43 356h2v2q-2 88 21.5 141.5t57.5 85t68.5 50t57.5 35.5q-66 45 -112 117.5t-44 164.5q2 119 39 201t99.5 131t149.5 70.5t191 21.5q209 2 318 -92t121 -305q6 -102 -33 -170t-137 -113q88 -4 133 -44t63 -138q14 -74 0 -163t-68.5 -165.5t-155.5 -129t-263 -50.5 q-94 0 -166 15.5t-126 40t-90 56.5t-60 64q-55 76 -66 174zM360 432q2 -53 24 -83t52.5 -45t63 -19t61.5 -6q45 4 75 19t47 36.5t25.5 47.5t10.5 50q4 63 -37 101t-133 36q-92 4 -138 -38t-51 -99zM369 983q0 -53 25.5 -84t60 -46t68.5 -18.5t52 -3.5q51 2 89 19 q33 14 59.5 45t26.5 86q0 2 -3.5 26.5t-20.5 54.5t-54 53.5t-107 21.5q-111 -4 -153.5 -46t-42.5 -108z" />
<glyph unicode="9" horiz-adv-x="1040" d="M57 905q0 119 52 211q20 39 54 77t84 66.5t118.5 46t160.5 17.5q78 0 137.5 -18.5t103.5 -48t73.5 -66.5t50.5 -76q47 -90 53 -205v-479q2 -115 -43 -207q-18 -39 -50 -76.5t-81 -68.5t-116.5 -52.5t-157.5 -25.5q-72 -4 -129.5 11.5t-100.5 42t-74.5 63.5t-54.5 76 l260 147q16 -25 44 -40t63 -13q27 2 54.5 15t49 34.5t35.5 47.5t14 50q0 23 1 35t1 24.5v31v53.5q-84 -66 -187 -72t-195.5 38t-156 136t-63.5 225zM348 899q2 -63 23.5 -97t50.5 -50q31 -19 72 -21q41 0 75 21q29 16 52.5 51t23.5 100q0 68 -24.5 106t-53.5 54 q-35 20 -78 22q-4 0 -26.5 -3t-49 -20.5t-47 -55t-18.5 -107.5z" />
<glyph unicode=":" horiz-adv-x="417" d="M47 0v262h283v-262h-283zM47 776v262h283v-262h-283z" />
<glyph unicode=";" horiz-adv-x="362" d="M47 0v262h283v-262q-4 -27 -15 -51q-10 -23 -27.5 -46.5t-47.5 -39.5l-134 43q2 4 10.5 14t14.5 23.5t6 29t-12 27.5h-78zM47 776v262h283v-262h-283z" />
<glyph unicode="&#x3c;" horiz-adv-x="892" d="M51 559l2 289l59 24q58 25 146 60t190.5 76t191.5 74.5t118 45.5l90 35q2 0 2 -31.5v-70.5q0 -45 -2 -103l-559 -243l565 -248v-205q-4 -4 -40 8.5t-92 33t-129 47t-147 55.5q-174 68 -395 153z" />
<glyph unicode="=" horiz-adv-x="1122" d="M57 227v230h967v-230h-967zM61 690v230h967v-230h-967z" />
<glyph unicode="&#x3e;" horiz-adv-x="970" d="M51 262v205l565 248l-559 243q-2 57 -2 103v70.5t2 31.5l59 -23q60 -24 149 -57.5t191.5 -74.5t190.5 -76t147 -60l58 -24l2 -289q-221 -86 -395 -153q-74 -29 -146.5 -55.5t-129 -47t-93.5 -33t-39 -8.5z" />
<glyph unicode="?" horiz-adv-x="724" d="M-43 1174q25 70 73 108.5t97 54.5q55 20 121 23q129 6 231 -33q43 -16 85 -45t76 -73t54.5 -106.5t20.5 -146.5q0 -131 -46 -208.5t-100 -118.5q-66 -49 -145 -66l-10 -170l-230 2l-22 373q82 -6 129 8.5t70.5 38t29.5 51t6 45.5q0 31 -6 62t-20.5 55.5t-38 38.5 t-53.5 14q-47 -2 -83 -18t-59 -35q-27 -23 -45 -49zM156 272h282v-260l-280 -2z" />
<glyph unicode="@" horiz-adv-x="1570" d="M70 551q-2 61 10 142t43 165t84 167t137 146.5t203 103.5t276 40q233 0 373.5 -59.5t215.5 -161t97.5 -237.5t22.5 -290q0 -152 -17.5 -257t-62.5 -170.5t-124 -95.5t-202 -30q-80 0 -131 31t-80.5 68t-41 67.5t-11.5 28.5t-9 -19.5t-30.5 -39t-58.5 -41t-90 -23.5 q-68 2 -114 39t-72.5 94t-36 130t0 146.5t34 141.5t63.5 115q35 43 71.5 65.5t71.5 28.5t68 1t61 -18q68 -29 129 -96l19 72l243 2l-149 -524q-8 -33 -4 -58q4 -23 19.5 -41t51.5 -20q41 -2 78 2t67 41t50.5 122t28.5 246q8 147 -14.5 255t-83 179.5t-165 106.5t-260.5 37 q-117 0 -220 -38t-180 -112.5t-121 -185t-40 -256.5q2 -150 46 -272.5t119 -210.5t174.5 -136t215.5 -51q96 -2 180.5 10.5t150 29t110.5 36t65 33.5l88 -109q2 -2 -34.5 -25.5t-110.5 -51t-182.5 -49t-245.5 -21.5q-160 0 -280 44t-206 112.5t-141 155.5t-88 177.5t-47 173 t-14 144.5zM645 324.5q4 -48.5 45 -58.5t72 -2t52.5 25.5t32.5 41t15 42.5q2 18 12.5 60t20.5 85t17.5 75t5.5 32t-24 17t-49.5 31.5t-57 14.5t-46.5 -35q-16 -35 -41.5 -96t-42 -122.5t-12.5 -110z" />
<glyph unicode="A" d="M27 0l362 1284h264l396 -1284h-283l-43 174h-375q-18 -80 -29.5 -127t-9.5 -47h-282zM414 434h245l-118 492q-18 -74 -41 -156q-18 -70 -41 -158t-45 -178z" />
<glyph unicode="B" horiz-adv-x="1040" d="M86 0v1290h549q88 -6 158 -43q31 -16 59.5 -40.5t51 -61.5t36.5 -86t14 -113q0 -41 -11 -85t-33.5 -81t-56.5 -62.5t-77 -31.5q43 -6 85 -20.5t77 -50t56.5 -101t23.5 -174.5q-6 -96 -43 -170q-16 -33 -42 -63.5t-62.5 -54t-87 -38t-115.5 -14.5h-582zM367 782h106l25 2 q26 2 56 14.5t55.5 38t25.5 72.5q0 45 -23.5 70t-52.5 37t-54.5 14t-29.5 2h-108v-250zM369 266h135q35 0 68.5 6.5t60 22.5t43 45t16.5 76t-21.5 75.5t-55 45t-73.5 21.5t-77 5h-96v-297z" />
<glyph unicode="C" horiz-adv-x="1099" d="M49 496v311q12 137 72 246q25 45 63.5 90t93 79.5t127 56t168.5 21.5q176 0 315.5 -80.5t198.5 -246.5l-286 -113q-10 31 -25.5 58.5t-40 49t-59.5 35t-86 13.5q-63 0 -110.5 -24.5t-79 -65.5t-48 -93.5t-16.5 -107.5v-158l2 -21q2 -22 9 -54.5t22.5 -69.5t42 -70 t68.5 -54.5t104 -21.5q49 0 81.5 7.5t56 21.5t41 35.5t34.5 50.5l245 -131q-23 -53 -55.5 -101t-85.5 -85t-131 -59.5t-190 -22.5q-113 0 -210.5 37t-168 102.5t-111.5 158.5t-41 206z" />
<glyph unicode="D" horiz-adv-x="1056" d="M55 0v1292h165t88.5 1t37.5 1h12q27 0 83.5 -6t126 -24.5t142 -51t133 -88t99.5 -135.5t41 -190q0 -86 1 -144.5t2 -94.5t1 -52v-23q-2 -31 -12 -78t-36 -100t-70 -108.5t-115.5 -99.5t-173 -71.5t-242.5 -27.5h-283zM338 268q33 0 94.5 3t121.5 24.5t104 68t44 132.5 v268q-6 68 -45 121q-35 47 -108.5 85t-210.5 42v-744z" />
<glyph unicode="E" horiz-adv-x="909" d="M63 0v1292h801v-264h-518v-297h354v-266h-354v-203h518v-262h-801z" />
<glyph unicode="F" horiz-adv-x="913" d="M63 0v1292h801v-264h-518v-297h354v-266h-354v-465h-283z" />
<glyph unicode="G" horiz-adv-x="1128" d="M49 508v315q0 12 6 53.5t24.5 95.5t54.5 114.5t94.5 110.5t144.5 83t207 33q125 0 213 -31t147 -79t94 -106.5t53 -111.5l-286 -113q-27 74 -79 115t-138 41q-82 0 -130 -36t-74 -82t-33 -94t-7 -73v-180q0 -70 10 -121t38 -84.5t76 -51t126 -17.5q82 0 131 33.5t76 80.5 v25l-207 21l-2 165h454v-643h-215l-12 158q-35 -63 -101.5 -98t-142.5 -35q-98 0 -172.5 21.5t-130 57.5t-93.5 82t-62 95q-57 113 -64 256z" />
<glyph unicode="H" horiz-adv-x="1214" d="M68 0v1284h282v-627h502v627h283v-1284h-283v389h-502v-389h-282z" />
<glyph unicode="I" horiz-adv-x="446" d="M86 0v1284h283v-1284h-283z" />
<glyph unicode="J" horiz-adv-x="524" d="M35 170q78 33 115.5 108.5t37.5 163.5v846h285v-905q0 -16 -6 -76.5t-36 -135.5t-92.5 -148.5t-174.5 -116.5z" />
<glyph unicode="K" horiz-adv-x="1052" d="M86 0v1290h289v-594h63q27 47 56.5 110.5t59.5 129t57.5 129t49 114t34 81t12.5 32.5l313 -4l-354 -743q8 2 31.5 -22.5t54 -62.5t67.5 -82t74 -82t69.5 -62.5t57.5 -24.5l14 -209h-260q-53 68 -101 142.5t-96.5 136t-97.5 101.5t-102 40h-8v-420h-283z" />
<glyph unicode="L" horiz-adv-x="976" d="M72 0v1284h282v-1020h518v-264h-800z" />
<glyph unicode="M" horiz-adv-x="1372" d="M43 0l29 1288h290q-2 0 13.5 -34.5t40 -91t56.5 -128t67 -147.5q80 -176 182 -400l305 799h277l16 -2v-1284h-283l-22 668l-180 -469h-265l-219 473l-24 -672h-283z" />
<glyph unicode="N" horiz-adv-x="1083" d="M51 1288h289q12 -29 52 -116t95.5 -205.5t121 -252.5t130.5 -255v825h283v-1284h-287l-395 739v-739h-283z" />
<glyph unicode="O" horiz-adv-x="1210" d="M88 494v311q12 137 72 246q25 45 63.5 90t93 79.5t127 56t168.5 21.5q117 0 214.5 -33.5t169 -97t114.5 -154.5t49 -206v-154q0 -66 2 -147q0 -14 -3 -57t-19.5 -100.5t-50 -121t-94 -116t-152.5 -87t-224 -34.5q-131 0 -222 36.5t-149.5 92t-91 121t-47 121t-17.5 93.5 t-3 40zM375 565l2 -21q2 -22 9 -54.5t22.5 -69.5t42 -70t68.5 -54.5t104 -21.5q63 0 111 25t80 64.5t47.5 92t15.5 109.5l-5 140q0 10 -2 36.5t-9 61.5t-22.5 71.5t-43 67.5t-69.5 51.5t-103 20.5q-68 0 -115 -29t-77 -73t-43 -98t-13 -105v-144z" />
<glyph unicode="P" horiz-adv-x="993" d="M76 -2v1296h471q113 -12 198 -59q37 -20 73 -50t63.5 -71t45 -96t17.5 -127q0 -92 -23.5 -174t-71.5 -144.5t-121 -98.5t-169 -36h-209v-432zM362 653q12 -4 25 -6q10 -2 25.5 -3t33.5 -1q33 0 73 9.5t73 36t55.5 74.5t22.5 128q0 88 -51.5 135t-135.5 47q-47 0 -81.5 -8 t-34.5 -10t-1 -64.5t-1 -138.5q-2 -88 -3 -199z" />
<glyph unicode="Q" horiz-adv-x="1155" d="M35 512v311q12 137 71 246q25 45 64 90t93 80t127 56.5t169 21.5q117 0 214 -34t169 -97.5t115 -154.5t49 -206v-153q0 -66 2 -148q0 -14 -4 -62t-24.5 -111.5t-62.5 -131t-118 -119.5q23 -29 47.5 -62.5t59.5 -33.5l34 -205h-260q-29 10 -49 41t-36.5 65t-31 64.5 t-30.5 40.5q-31 -4 -59.5 -7t-57.5 -3q-104 0 -180 30.5t-129 78t-87 106.5t-52.5 115.5t-25.5 105.5t-7 76zM322 573q2 -18 11 -69t36.5 -104.5t77 -95.5t131.5 -42q68 0 113.5 27.5t75.5 73t43 101.5t13 111v148q-2 0 -3 22.5t-7 57.5t-20.5 75t-42 74.5t-71.5 57 t-110 22.5q-68 0 -114.5 -28.5t-76.5 -72.5t-43 -98.5t-13 -105.5v-154z" />
<glyph unicode="R" horiz-adv-x="1048" d="M43 -2q0 199 2 391v170t1 176t1 170v152v168.5t-2 62.5h469q113 -8 203 -59q37 -23 73.5 -56.5t65.5 -82t46.5 -114t17.5 -151.5q0 -78 -17.5 -144.5t-43 -117.5t-58.5 -87t-64 -54q35 -12 67 -46t63.5 -70t65.5 -65.5t73 -31.5l14 -209h-260q-53 68 -94 128t-79 105.5 t-78 73t-91 31.5h-101v-340h-274zM334 553q4 -2 12 -2q8 -2 35 -2q123 0 192.5 75.5t69.5 200.5q0 78 -32.5 124t-78 69.5t-92.5 31t-75 7.5q-8 0 -13.5 -1t-9.5 -1h-8v-502z" />
<glyph unicode="S" horiz-adv-x="1067" d="M49 336l291 110q10 -18 21.5 -40.5t31 -46t51 -45t82.5 -35.5q20 -4 31 -5q27 0 53.5 11.5t47 31t32.5 46t12 55.5q0 53 -62 83.5t-153 30.5q-57 0 -127.5 13.5t-133 53.5t-104.5 110.5t-42 187.5t32.5 195.5t93 127t145.5 70t190 21.5q109 0 185.5 -24.5t129.5 -53.5 q59 -35 102 -78l-213 -215q-23 35 -53 61q-27 23 -65.5 43.5t-91.5 20.5q-66 0 -115 -51t-49 -129q4 -37 25.5 -58.5t53 -32t67.5 -13t67 -3.5q20 0 61 -4t91 -17.5t101.5 -37t94.5 -62.5t69.5 -95t26.5 -134q0 -70 -23.5 -145.5t-79 -139t-144.5 -104.5t-220 -41 q-82 0 -147.5 14.5t-116.5 38t-90 54t-66 61.5q-66 74 -92 170z" />
<glyph unicode="T" horiz-adv-x="1110" d="M31 1085v211h1059v-211h-383v-1073h-283v1073h-393z" />
<glyph unicode="U" horiz-adv-x="1150" d="M66 512v780h288v-708q0 -55 12.5 -107.5t39 -93.5t69.5 -65.5t103 -24.5q63 0 108 23.5t73.5 61.5t43 88t14.5 105v721h285v-768q0 -14 -2 -57t-17.5 -101.5t-47 -123t-90 -118.5t-148.5 -89t-224 -35q-115 0 -209 37t-160.5 104.5t-102 161.5t-35.5 209z" />
<glyph unicode="V" horiz-adv-x="1105" d="M27 1284h282q-2 0 7.5 -40t25.5 -105.5t36.5 -149.5t43.5 -170q53 -205 119 -465l225 930l283 -4l-396 -1284l-264 4z" />
<glyph unicode="W" horiz-adv-x="1624" d="M18 1288h330q-2 0 5 -37t20.5 -96t31 -135t35.5 -156q43 -186 101 -422l108 846h281q4 -27 15 -77t27.5 -114.5t37 -139t41.5 -148.5q47 -172 106 -375l127 854h303l-317 -1288h-264l-201 698l-152 -698h-264z" />
<glyph unicode="X" horiz-adv-x="1052" d="M29 0l344 635l-344 657h282l207 -389l234 393h282l-375 -673l375 -623h-282l-224 391l-217 -391h-282z" />
<glyph unicode="Y" horiz-adv-x="1081" d="M35 1290h276q-2 -4 20.5 -46t58.5 -108.5t79 -146.5t84 -158q37 80 75 162t68.5 147.5t50 107.5t19.5 40h289q-109 -207 -191 -368q-35 -70 -69.5 -136.5t-61 -119t-41.5 -84.5l-16 -33l-2 -543h-283v580q-4 6 -20.5 39.5t-42 84t-57 113t-64.5 127.5q-78 152 -172 342z " />
<glyph unicode="Z" horiz-adv-x="1046" d="M35 0v262l618 766h-610v264h934v-264l-23 -35q-24 -35 -66 -94t-98.5 -137t-122 -162t-135 -170t-139.5 -162h578v-268h-936z" />
<glyph unicode="[" horiz-adv-x="600" d="M86 -242v1598h438v-168h-213v-1262h213v-168h-438z" />
<glyph unicode="\" d="M86 1356h283l522 -1356h-283z" />
<glyph unicode="]" horiz-adv-x="581" d="M86 -74h213v1262h-213v168h438v-1598h-438v168z" />
<glyph unicode="^" horiz-adv-x="1705" />
<glyph unicode="_" horiz-adv-x="1431" d="M55 0v229h1286v-229h-1286z" />
<glyph unicode="`" horiz-adv-x="403" d="M4 1397h266l117 -281h-229l-78 139q-29 53 -52.5 96.5t-23.5 45.5z" />
<glyph unicode="a" horiz-adv-x="886" d="M16 283q0 84 42 139t100.5 88t123 46t111.5 13q92 0 162 80v21q0 12 -3 34.5t-14.5 44t-34 37t-63.5 15.5t-67.5 -16.5t-42 -38t-23.5 -44t-10 -32.5q-2 -4 -2 -8v-5q-6 0 -46 19.5t-87 42.5q-53 27 -121 63q27 72 80 129q47 47 129 88t211 41q66 0 117 -14t89 -36.5 t63.5 -51.5t43.5 -59q41 -70 49 -160v-416q0 -43 6.5 -73.5t16.5 -30.5q23 0 32 4t17 10l12 4l37 -82q-4 -20 -17.5 -43.5t-34 -43t-48 -33t-62.5 -13.5q-72 0 -109.5 26.5t-66.5 57.5q-43 -35 -97 -61.5t-132 -26.5q-90 0 -157.5 21.5t-113 60.5t-68 91t-22.5 112zM295 279 q0 -47 26 -65.5t87 -20.5q94 0 143 59q0 10 1 30.5t1 49.5q0 23 1 42t1 54q-16 -12 -41 -22.5t-59 -14.5q-92 -10 -126 -32.5t-34 -79.5z" />
<glyph unicode="b" horiz-adv-x="960" d="M39 1356h285v-379q10 14 35.5 26.5t54 19.5t56.5 11t44 4q49 0 116.5 -11t131 -50t107.5 -115t44 -205q0 -80 -1 -133t-1 -86v-57q0 -80 -31.5 -148.5t-86 -120t-127 -80t-154.5 -28.5q-63 0 -111.5 16.5t-76.5 49.5v-68h-283zM324 501q0 -34 1 -50.5t1 -21.5v-7 q2 -20 6 -44t18.5 -45.5t43 -35.5t77.5 -14q53 0 83 24.5t43 55t15 55.5l2 26v150q0 20 -4 50t-18 58.5t-42 49t-75 20.5q-49 0 -78.5 -27.5t-46 -61.5t-21.5 -61.5t-5 -25.5v-95z" />
<glyph unicode="c" horiz-adv-x="845" d="M29 397v252q0 88 34.5 162t93 127t137.5 83t165 30q113 0 188.5 -32t122.5 -77t71.5 -98t35.5 -96q-72 -23 -125 -43q-47 -16 -86 -32t-39 -18q-4 20 -15.5 47t-32 49.5t-50 38t-66.5 15.5q-51 0 -79 -37t-42 -80q-16 -51 -18 -115v-112q2 -61 18 -111q14 -41 41 -75.5 t80 -34.5q72 0 124 22.5t62 63.5l209 -93q-53 -125 -159.5 -185t-245.5 -60q-80 0 -140.5 17.5t-105.5 46t-75 65.5t-50 76q-47 90 -53 204z" />
<glyph unicode="d" horiz-adv-x="958" d="M51 408q0 86 1 147t3 121q2 88 38 157.5t91.5 116.5t122 73t129.5 26q84 0 122 -13.5t52 -27.5v348h283v-1356h-283v104q-18 -31 -53 -53q-29 -20 -76 -35.5t-116 -15.5q-59 0 -103.5 17.5t-78 46t-56.5 64.5t-37 75q-35 90 -39 205zM350 516q0 -29 2 -67q6 -49 23 -87 q14 -33 40.5 -58t73.5 -25q78 0 111 41.5t33 109.5v3v17.5t-1 45.5t-1 86q0 12 -3 43.5t-16.5 63.5t-41 57.5t-76.5 25.5q-51 0 -80 -28.5t-43.5 -63.5t-17.5 -64.5t-3 -31.5v-68z" />
<glyph unicode="e" horiz-adv-x="884" d="M29 397v252q6 111 55 197q20 37 52 71.5t79 62.5t109.5 45t146.5 17q201 0 296 -108.5t95 -306.5v-191h-536q0 -53 5 -92t21.5 -64.5t46 -38t76.5 -12.5q66 0 116 34t101 81l166 -111q-29 -66 -77 -110.5t-109.5 -72t-132 -40t-146.5 -12.5q-137 0 -210.5 42 t-107.5 103.5t-40 131t-6 122.5zM328 586h274q0 29 -2 67.5t-15.5 72.5t-42 57.5t-79.5 23.5q-49 -2 -77 -20.5t-41 -48t-15 -69.5t-2 -83z" />
<glyph unicode="f" horiz-adv-x="669" d="M37 805v229h82v78q0 10 7 49t32.5 82t78 78t142.5 35q49 0 95 -10.5t82 -24.5t57.5 -26.5t21.5 -16.5t-11.5 -31.5t-23.5 -62.5q-14 -39 -33 -88q-16 6 -37 14q-16 4 -36.5 9t-40.5 5q-31 0 -52 -14v-76h154v-229h-154v-803h-282v803h-82z" />
<glyph unicode="g" horiz-adv-x="946" d="M70 399v312q0 100 36.5 164.5t91 101.5t116 50t112.5 13q12 0 41 -5t59.5 -13t53 -21.5t22.5 -27.5l-2 69h283v-993q0 -109 -23.5 -171t-72 -95t-122 -42t-173.5 -9q-104 0 -180 21.5t-128 49.5q-59 33 -102 74l88 164q43 -33 98 -57q47 -23 112.5 -40.5t147.5 -17.5 q33 0 52.5 12.5t30 30t14.5 38t4 36.5q0 29 -8.5 52.5t-10.5 23.5q-6 -6 -22.5 -18.5t-45 -25t-72.5 -21.5t-105 -9q-72 0 -122 25.5t-83 64.5t-50.5 85t-26.5 85t-11 65.5t-2 28.5zM338 594l6 -125q4 -63 40 -106.5t99 -43.5q78 0 110 32t32 112v127q0 8 -3.5 37.5 t-17.5 62.5t-43 59.5t-80 26.5q-78 0 -110.5 -37t-32.5 -145z" />
<glyph unicode="h" horiz-adv-x="1007" d="M72 0v1356h282v-387q4 4 21.5 15t45.5 22.5t62.5 20.5t71.5 9q43 0 108.5 -10t127 -46t105.5 -103.5t44 -182.5v-694h-283v618q-2 43 -20 78q-16 29 -50 53.5t-95 24.5q-53 0 -87 -24.5t-51 -57.5v-692h-282z" />
<glyph unicode="i" horiz-adv-x="452" d="M94 1186v178h283v-178h-283zM96 0v1038h283v-1038h-283z" />
<glyph unicode="j" horiz-adv-x="393" d="M-166 -143q0 4 10.5 27.5t22.5 49.5l33 70q12 -6 28 -10q27 -10 64 -10q35 0 57 16v1038h283v-1040q0 -10 -6.5 -49t-32 -82t-74.5 -78t-135 -35q-53 0 -99 14.5t-80 33t-52.5 35t-18.5 20.5zM49 1186v178h283v-178h-283z" />
<glyph unicode="k" horiz-adv-x="1017" d="M98 0v1356h283v-725l235 405h302l-295 -487q8 -4 26.5 -32t43 -65.5t53 -81.5t57 -81t55.5 -61.5t49 -24.5l31 -201h-256q-18 0 -36.5 30.5t-39 77t-43 99.5t-50.5 99t-60.5 78t-71.5 32v-418h-283z" />
<glyph unicode="l" horiz-adv-x="442" d="M86 0v1356h283v-1356h-283z" />
<glyph unicode="m" horiz-adv-x="1333" d="M66 0v1036h282v-123q0 2 4 7q6 10 22.5 29.5t40 39t53.5 33.5t64 14q27 0 64 -2t71.5 -14t61.5 -37t35 -70q8 6 19.5 25.5t34 41t58 39t93.5 17.5q43 0 95 -8t98 -41t78 -98.5t32 -179.5v-709h-283v633q-2 39 -10 69q-8 27 -26.5 49.5t-53.5 22.5q-43 0 -63.5 -33.5 t-24.5 -68.5v-672h-283v629q-2 39 -10 69q-8 27 -26.5 49.5t-53.5 22.5q-29 0 -46 -15.5t-27.5 -38t-13.5 -46t-3 -41.5v-629h-282z" />
<glyph unicode="n" horiz-adv-x="1007" d="M66 0v1036h282v-67q4 4 21.5 15t45 22.5t62.5 20.5t72 9q43 0 108.5 -10t127 -46t105.5 -103.5t44 -182.5v-694h-283v623q0 8 -4 32.5t-20.5 51t-49 47t-92.5 20.5q-53 0 -86.5 -24.5t-50.5 -57.5v-692h-282z" />
<glyph unicode="o" horiz-adv-x="983" d="M49 403v252q10 109 60 195q20 37 50.5 71.5t75 62.5t103.5 45.5t137 17.5q190 0 310 -101.5t135 -288.5v-122q0 -53 2 -121q0 -12 -3.5 -47t-16.5 -81t-40.5 -97.5t-77 -94.5t-124 -71.5t-181.5 -28.5q-92 0 -171 29.5t-136 84t-90 129t-33 166.5zM338 467q2 -61 20 -111 q14 -41 44 -75.5t83 -34.5q49 0 80 22.5t47.5 55t21.5 71.5t5 72v113q-4 68 -23 120q-16 47 -47 85t-86 38q-51 -4 -79.5 -42t-43.5 -83q-18 -53 -22 -118v-113z" />
<glyph unicode="p" horiz-adv-x="966" d="M66 -244v1280h282v-67q41 20 87 42.5t102 22.5q51 0 114.5 -12t118.5 -47t93 -97.5t38 -162.5v-357q0 -96 -31.5 -163.5t-83 -110.5t-118 -63.5t-133.5 -20.5q-115 0 -187 59v-303h-282zM330 563l2 -127q0 -27 5 -54.5t19.5 -50t42 -36.5t72.5 -14q49 0 76.5 18t42 43 t17.5 49.5t3 36.5v135q0 25 -3 60.5t-17.5 69.5t-43 57.5t-79.5 23.5q-70 0 -102.5 -62.5t-34.5 -148.5z" />
<glyph unicode="q" horiz-adv-x="946" d="M53 401q0 82 1 147.5t5 129.5q4 104 45 175t99.5 114t124 62.5t116.5 19.5q76 0 114 -15.5t54 -27.5v32h283v-1282h-283v299q-35 -23 -87 -38t-124 -15q-61 0 -108 17.5t-82 45t-60.5 64.5t-44.5 74q-41 88 -53 198zM350 586l4 -150q6 -43 25 -78q16 -29 41.5 -54 t68.5 -25q59 0 99.5 29.5t46.5 86.5v99q0 41 2 96q-2 51 -19 90q-14 35 -42.5 63.5t-81.5 28.5t-82 -29.5t-43 -64.5q-16 -41 -19 -92z" />
<glyph unicode="r" horiz-adv-x="616" d="M72 2v1036h282v-98q43 53 86 76.5t123 23.5q12 0 31.5 -2t39 -7t36 -11t20.5 -14l-104 -252q-37 22 -86 22h-4q-29 0 -50.5 -11t-39 -28.5t-31 -37t-21.5 -35.5v-662h-282z" />
<glyph unicode="s" horiz-adv-x="792" d="M35 692q0 92 27.5 157.5t77.5 107.5t119 61.5t153 19.5q86 0 149.5 -21.5t104.5 -47.5q49 -31 84 -70l-164 -178q-14 23 -37 41q-20 16 -51 29.5t-76 13.5q-59 0 -92 -12.5t-33 -77.5q4 -41 53 -60.5t142 -42.5q78 -20 134 -43.5t93 -58.5t55.5 -88t18.5 -131t-29 -133.5 t-78 -90t-116.5 -52t-143.5 -17.5q-129 0 -204 40t-116 87q-47 55 -65 127l201 80q16 -29 32.5 -53.5t36 -45t44 -32t57.5 -11.5q20 0 41.5 2.5t38 10.5t26.5 25.5t10 45.5q0 61 -44 91t-104.5 48.5t-123.5 32t-102 39.5q-23 14 -44.5 33t-38 42.5t-26.5 56t-10 75.5z" />
<glyph unicode="t" horiz-adv-x="696" d="M47 805v229h111v39l86 135h196v-174h125v-229h-125v-555q23 -16 58 -17q33 0 63 11q14 4 29 10l33 -70q12 -27 22 -50t10 -28q0 -4 -25.5 -20t-64.5 -34.5t-82 -33t-77 -14.5q-45 0 -89.5 18.5t-80 51t-57 78t-21.5 98.5v555h-111z" />
<glyph unicode="u" horiz-adv-x="972" d="M51 342v694h283v-622q0 -8 3 -33t19.5 -51.5t50 -47t93.5 -20.5q61 0 99 20.5t38 61.5v692h283v-1036h-283v68q-4 -4 -21.5 -15.5t-45 -23t-62.5 -20.5t-72 -9q-43 0 -108.5 10t-127 45t-105.5 103.5t-44 183.5z" />
<glyph unicode="v" horiz-adv-x="946" d="M33 1036h262l170 -680l178 682l264 -2l-315 -1036h-268z" />
<glyph unicode="w" horiz-adv-x="1294" d="M33 1036h262l170 -680l57 682h264l58 -682l170 680h262l-291 -1036h-268l-64 332l-61 -332h-268z" />
<glyph unicode="x" horiz-adv-x="966" d="M37 0l280 516l-272 518h287l127 -243l153 245h289l-287 -530l306 -506h-283l-160 283l-145 -283h-295z" />
<glyph unicode="y" horiz-adv-x="921" d="M33 1034h262l170 -665l178 667h264l-315 -1024q-6 -72 -33 -127q-23 -47 -73 -87t-142 -40q-59 0 -105 14.5t-79 33t-49.5 35t-16.5 20.5t10.5 27.5t22.5 50.5l33 69q14 -16 30 -28q14 -10 31 -18.5t35 -8.5q20 0 44 9t24 50z" />
<glyph unicode="z" horiz-adv-x="925" d="M57 0v262l457 504h-448v264h811v-264l-34 -35t-96.5 -100.5t-148.5 -157.5t-190 -205h462v-268h-813z" />
<glyph unicode="{" horiz-adv-x="548" d="M37 481v146h82q2 0 12 5t22.5 18.5t22.5 38t10 61.5v264q0 88 2 188q2 41 21 76q16 29 47 52.5t90 25.5h91h47.5t18.5 -1t5 -1t2 -15.5t-1 -34t-2 -33t-1 -11.5q0 2 -21.5 4t-47 -7.5t-47 -33t-21.5 -68.5v-195.5t2 -158.5q0 -80 2 -144q-2 -33 -11 -55q-8 -20 -24 -36.5 t-45 -16.5q29 -2 44 -17.5t23 -33.5q8 -23 9 -47q-2 -66 -4 -146q-2 -68 -2.5 -158t-0.5 -194q0 -47 22 -69.5t48.5 -32t48 -8.5t21.5 5q0 2 1 -12t2 -32.5t1 -34t-2 -15.5t-5 -1t-18.5 -1h-47.5h-91t-90 24.5t-47 53.5q-18 35 -21 76q-2 100 -2 188q-2 76 -2 150.5v113.5 q0 37 -9 61.5t-21.5 38t-22.5 18.5t-12 5h-78z" />
<glyph unicode="|" horiz-adv-x="462" d="M86 -242v1598h283v-1598h-283z" />
<glyph unicode="}" horiz-adv-x="679" d="M49 1338.5q0 15.5 2 15.5t5 1t18.5 1h47.5h91q59 -2 90 -25.5t47 -52.5q18 -35 21 -76v-188q0 -76 1 -152t1 -112q0 -37 10 -61.5t22.5 -38t22.5 -18.5t12 -5h82v-146h-78q-2 0 -12 -5t-22.5 -18.5t-21.5 -38t-9 -61.5q0 -39 -1 -113.5t-1 -150.5q-2 -88 -2 -188 q-2 -41 -21 -76q-16 -29 -47 -53.5t-90 -24.5h-91h-47.5t-18.5 1t-5 1t-2 15.5t1 34t2 32.5t1 12q0 -4 21.5 -5t48.5 8.5t48.5 32t21.5 69.5q0 104 -1 194.5t-3 157.5q-2 80 -3 146q0 25 9 47q6 18 22.5 33.5t44.5 17.5q-31 0 -46 16.5t-23 36.5q-8 23 -11 55q0 63 2 144 q0 68 1 159t1 195q0 45 -21.5 68.5t-47 33t-47 7.5t-21.5 -4t-1 12t-2 32.5t-1 34z" />
<glyph unicode="&#xa1;" horiz-adv-x="415" d="M35 8l59 967h232q16 -258 30 -463q6 -88 11.5 -174t9.5 -155.5t7 -117t3 -57.5h-352zM74 1092v262h282v-262h-282z" />
<glyph unicode="&#xa2;" horiz-adv-x="845" d="M29 397v252q6 80 34 152q25 61 75 122.5t143 96.5v180h282v-160q82 -14 138.5 -48t92 -74.5t54 -86t29.5 -83.5q-78 -35 -138 -62q-51 -23 -94 -44t-43 -24q-4 20 -11 47t-23.5 48.5t-42 37t-62.5 15.5q-51 -4 -79 -34t-42 -64q-16 -41 -18 -95v-112q2 -53 18 -94 q14 -35 41 -64t80 -29q68 0 97.5 29t39.5 70l258 -140q-16 -37 -38.5 -73.5t-58.5 -69.5t-84 -56.5t-114 -35.5v-141h-282v157q-96 35 -147.5 98.5t-74.5 127.5q-27 74 -30 157z" />
<glyph unicode="&#xa3;" horiz-adv-x="1183" d="M29 0q-4 174 82 264t251 86q4 35 -5 76t-25 88h-221v217h143q-20 66 -29.5 137.5t4.5 147.5q14 90 56.5 153.5t100.5 102.5t131 56.5t151 17.5q88 0 153.5 -21.5t110.5 -57.5t73.5 -81t45.5 -92q37 -113 24 -252l-219 4v106q0 39 -7 75t-27.5 63.5t-57.5 43t-98 15.5 q-66 0 -100 -23.5t-50 -52.5q-18 -33 -18 -74l47 -268h297v-217h-260l12 -61q0 -14 -2 -29q-4 -12 -9 -28.5t-16 -33.5q106 -18 156 -83q31 -41 56.5 -52.5t43.5 -11.5q25 0 37 11.5t19 27.5q6 16 6 39l2 170l235 6v-23q0 -18 -1 -58t-3 -116t-25.5 -128t-63.5 -83.5 t-96 -46t-122 -14.5t-110 24.5t-81.5 53t-81.5 53.5t-110 25t-99.5 -25t-47.5 -53q-16 -35 -15 -78h-237z" />
<glyph unicode="&#xa5;" horiz-adv-x="1081" d="M35 1290h276q-2 -4 20.5 -46t58.5 -108.5t79 -146.5t84 -158q35 78 74 161t69 149q37 78 70 151h289q0 -2 -34 -67.5t-83 -160.5t-103.5 -200.5t-95.5 -185.5h219v-229h-284v-72h280v-230h-280v-143h-283v143h-276v230h276v72h-272v229h225q-18 37 -40.5 82t-48.5 95 t-51.5 101.5t-49.5 100.5q-57 113 -119 233z" />
<glyph unicode="&#xa6;" horiz-adv-x="1705" />
<glyph unicode="&#xa7;" horiz-adv-x="1062" d="M59 170l289 55q8 -16 15.5 -38.5t21.5 -46t40 -47t73 -44.5q8 -4 15 -4t15 -2q25 -4 50.5 2t48 20.5t38 36t19.5 45.5q8 49 -46 84t-138 52q-53 8 -123 23.5t-126 52t-85 99.5t0 165q10 41 31.5 69.5t48.5 46.5q-37 20 -68 49t-51.5 66t-29.5 81t1 99q12 63 46 128 t94.5 113t150.5 70.5t213 4.5q76 -12 135.5 -35t103.5 -51.5t75.5 -61.5t54.5 -65q51 -76 61 -164l-289 -53q-8 16 -15 38.5t-21.5 46t-41 47t-71.5 44.5q-8 2 -15.5 4t-15.5 2q-25 4 -50.5 -2t-48 -19.5t-37.5 -35t-19 -48.5q-10 -49 45 -84.5t139 -50.5q53 -8 122.5 -23.5 t126 -52t85 -100t0.5 -164.5q-12 -41 -34 -69.5t-46 -49.5q35 -23 65.5 -50t52 -63t29.5 -80t0 -99q-12 -63 -46 -128t-95 -113t-150.5 -70.5t-212.5 -4.5q-78 12 -137 33.5t-103 50.5t-76 61.5t-52 65.5q-51 76 -62 164zM414 608q-4 -41 23.5 -65.5t67.5 -39t84 -19.5 t75 -5q4 12 8 25.5t6 34.5q2 33 -20.5 54t-59.5 34.5t-83 21.5t-89 15q-4 -12 -8 -25t-4 -31z" />
<glyph unicode="&#xa8;" horiz-adv-x="798" d="M51 1188v178h195v-178h-195zM530 1188v178h195v-178h-195z" />
<glyph unicode="&#xab;" horiz-adv-x="1384" d="M45 496l526 536h287l-512 -540l508 -533h-291zM512 496l526 536h287l-512 -540l508 -533h-291z" />
<glyph unicode="&#xad;" horiz-adv-x="1097" d="M51 524v230h967v-230h-967z" />
<glyph unicode="&#xaf;" horiz-adv-x="1705" />
<glyph unicode="&#xb0;" horiz-adv-x="598" d="M45 1055q0 55 17.5 104t50 85t76.5 57.5t100 21.5q55 0 99 -19.5t75 -55.5t48 -83t17 -102t-17 -104.5t-48 -86t-75 -58t-99 -21.5t-99.5 20.5t-77 55t-50 83t-17.5 103.5zM215 1047q0 -16 2 -35t9 -34t21.5 -25.5t41.5 -10.5q51 0 62 35t11 70q0 16 -2 34.5t-9 33.5 t-21.5 24.5t-40.5 9.5q-25 0 -40.5 -9.5t-22.5 -24.5t-9 -33.5t-2 -34.5z" />
<glyph unicode="&#xb1;" horiz-adv-x="1705" />
<glyph unicode="&#xb4;" horiz-adv-x="389" d="M4 1116l117 281l266 -2l-154 -279h-229z" />
<glyph unicode="&#xb6;" horiz-adv-x="1234" d="M72 844q0 119 24.5 202.5t61.5 141t82 91.5t85 51.5t69.5 23.5t37.5 6h643l4 -121h-215v-1485h-139v1485h-154v-1485h-139v637q-51 10 -113.5 35t-118 76t-92 134t-36.5 208z" />
<glyph unicode="&#xb7;" horiz-adv-x="1705" />
<glyph unicode="&#xb8;" horiz-adv-x="335" d="M27 -233l24 83q29 -4 53 -8q23 -4 43.5 -4t30.5 4q20 8 22.5 17.5t-4 15.5t-17.5 10t-19 2h-129l2 125h133v-39q27 2 54.5 0t49 -12t35.5 -30.5t12 -55.5q-2 -41 -15 -66.5t-33.5 -41t-47 -21.5t-53.5 -6q-63 0 -141 27z" />
<glyph unicode="&#xbb;" horiz-adv-x="1499" d="M45 1032h287l526 -536l-518 -537h-291l508 533zM512 1032h287l526 -536l-518 -537h-291l508 533z" />
<glyph unicode="&#xbf;" horiz-adv-x="763" d="M4 461q0 -86 20.5 -147.5t54.5 -105.5t76 -73t85 -45q102 -39 231 -33q63 2 121 23q47 16 96 54t74 110l-135 194q-18 -27 -45 -49q-23 -18 -59 -34.5t-83 -18.5q-31 0 -54.5 14.5t-37.5 39t-20 55t-6 61.5q0 18 6 46t29.5 51.5t70.5 37.5t129 8l-22 373l-230 2l-10 -170 q-82 -16 -145 -66q-55 -41 -100.5 -118.5t-45.5 -208.5zM281 1145v260l280 2l2 -262h-282z" />
<glyph unicode="&#xc0;" d="M27 0l362 1284h264l396 -1284h-283l-43 174h-375q-18 -80 -29.5 -127t-9.5 -47h-282zM330 1649h266l117 -281h-229l-78 139q-29 53 -52.5 96.5t-23.5 45.5zM414 434h245l-118 492q-18 -74 -41 -156q-18 -70 -41 -158t-45 -178z" />
<glyph unicode="&#xc1;" d="M27 0l362 1284h264l396 -1284h-283l-43 174h-375q-18 -80 -29.5 -127t-9.5 -47h-282zM375 1368l117 281l266 -2l-154 -279h-229zM414 434h245l-118 492q-18 -74 -41 -156q-18 -70 -41 -158t-45 -178z" />
<glyph unicode="&#xc2;" d="M27 0l362 1284h264l396 -1284h-283l-43 174h-375q-18 -80 -29.5 -127t-9.5 -47h-282zM315 1368l137 279l166 2l140 -281h-170l-52 92l-51 -92h-170zM414 434h245l-118 492q-18 -74 -41 -156q-18 -70 -41 -158t-45 -178z" />
<glyph unicode="&#xc3;" d="M27 0l362 1284h264l396 -1284h-283l-43 174h-375q-18 -80 -29.5 -127t-9.5 -47h-282zM139 1516q10 8 37 16q23 8 67 15.5t115 13.5q43 2 94.5 -2t101.5 -12.5t98 -16.5t85 -12q18 -2 44 -4t50.5 -2t47 1t36.5 7l21 -199q2 0 -16.5 -6t-48 -12t-66.5 -10t-72 0 q-39 2 -93 10t-108.5 15t-102.5 12.5t-73 5.5q-86 -2 -120.5 -13.5t-36.5 -7.5zM414 434h245l-118 492q-18 -74 -41 -156q-18 -70 -41 -158t-45 -178z" />
<glyph unicode="&#xc4;" d="M27 0l362 1284h264l396 -1284h-283l-43 174h-375q-18 -80 -29.5 -127t-9.5 -47h-282zM198 1440v178h195v-178h-195zM414 434h245l-118 492q-18 -74 -41 -156q-18 -70 -41 -158t-45 -178zM677 1440v178h195v-178h-195z" />
<glyph unicode="&#xc5;" d="M27 0l362 1284h264l396 -1284h-283l-43 174h-375q-18 -80 -29.5 -127t-9.5 -47h-282zM337 1407q0 84 58.5 142.5t142.5 58.5t142.5 -58.5t58.5 -142.5t-58.5 -142.5t-142.5 -58.5t-142.5 58.5t-58.5 142.5zM414 434h245l-118 492q-18 -74 -41 -156q-18 -70 -41 -158 t-45 -178zM458 1413q0 -35 24.5 -59.5t59.5 -24.5t59.5 24.5t24.5 59.5t-24.5 59.5t-59.5 24.5t-59.5 -24.5t-24.5 -59.5z" />
<glyph unicode="&#xc6;" horiz-adv-x="1515" d="M43 -2l363 1290l227 -2v2h801v-260h-519v-375l355 -2v-264l-355 2l3 -127l516 2v-264h-801v393l-207 4q-10 -41 -26.5 -107.5t-34 -132t-28.5 -112.5l-11 -47h-283zM492 649l141 2v279l-76 -2q-2 -14 -10 -49q-6 -29 -19.5 -84.5t-35.5 -145.5z" />
<glyph unicode="&#xc7;" horiz-adv-x="1099" d="M49 496v311q12 137 72 246q25 45 63.5 90t93 79.5t127 56t168.5 21.5q176 0 315.5 -80.5t198.5 -246.5l-286 -113q-10 31 -25.5 58.5t-40 49t-59.5 35t-86 13.5q-63 0 -110.5 -24.5t-79 -65.5t-48 -93.5t-16.5 -107.5v-158l2 -21q2 -22 9 -54.5t22.5 -69.5t42 -70 t68.5 -54.5t104 -21.5q49 0 81.5 7.5t56 21.5t41 35.5t34.5 50.5l245 -131q-23 -53 -55.5 -101t-85.5 -85t-131 -59.5t-190 -22.5q-113 0 -210.5 37t-168 102.5t-111.5 158.5t-41 206zM402 -233l24 83q29 -4 53 -8q23 -4 43.5 -4t30.5 4q20 8 22.5 17.5t-4 15.5t-17.5 10 t-19 2h-129l2 125h133v-39q27 2 54.5 0t49 -12t35.5 -30.5t12 -55.5q-2 -41 -15 -66.5t-33.5 -41t-47 -21.5t-53.5 -6q-63 0 -141 27z" />
<glyph unicode="&#xc8;" horiz-adv-x="946" d="M63 0v1292h801v-264h-518v-297h354v-266h-354v-203h518v-262h-801zM266 1649h266l117 -281h-229l-78 139q-29 53 -52.5 96.5t-23.5 45.5z" />
<glyph unicode="&#xc9;" horiz-adv-x="946" d="M63 0v1292h801v-264h-518v-297h354v-266h-354v-203h518v-262h-801zM311 1368l117 281l266 -2l-154 -279h-229z" />
<glyph unicode="&#xca;" horiz-adv-x="946" d="M63 0v1292h801v-264h-518v-297h354v-266h-354v-203h518v-262h-801zM252 1368l137 279l166 2l140 -281h-170l-52 92l-51 -92h-170z" />
<glyph unicode="&#xcb;" horiz-adv-x="946" d="M63 0v1292h801v-264h-518v-297h354v-266h-354v-203h518v-262h-801zM135 1440v178h195v-178h-195zM614 1440v178h195v-178h-195z" />
<glyph unicode="&#xcc;" horiz-adv-x="446" d="M16 1649h266l117 -281h-229l-78 139q-29 53 -52.5 96.5t-23.5 45.5zM86 0v1284h283v-1284h-283z" />
<glyph unicode="&#xcd;" horiz-adv-x="446" d="M61 1368l117 281l266 -2l-154 -279h-229zM86 0v1284h283v-1284h-283z" />
<glyph unicode="&#xce;" horiz-adv-x="446" d="M4 1368l137 279l166 2l140 -281h-170l-52 92l-51 -92h-170zM86 0v1284h283v-1284h-283z" />
<glyph unicode="&#xcf;" horiz-adv-x="446" d="M-111 1440v178h195v-178h-195zM86 0v1284h283v-1284h-283zM368 1440v178h195v-178h-195z" />
<glyph unicode="&#xd0;" horiz-adv-x="1196" d="M51 401v230h142v653h282q0 2 47 1t119 -13t155 -42t154.5 -84t119.5 -139t50 -208q0 -82 1 -138.5t2 -91t1 -53v-27.5q0 4 1 5.5t1 3.5q0 -23 -2 -13q-2 -31 -12 -78t-35.5 -100t-69.5 -108.5t-116 -98.5t-173.5 -71.5t-242.5 -28.5h-282v401h-142zM475 268 q31 -4 91.5 -3t121 20.5t105.5 68.5t47 142q2 111 2 166v77q0 27 -2 25q-6 68 -45 121q-35 47 -109 85t-211 42v-381h227v-230h-227v-133z" />
<glyph unicode="&#xd1;" horiz-adv-x="1083" d="M51 1288h289q12 -29 52 -116t95.5 -205.5t121 -252.5t130.5 -255v825h283v-1284h-287l-395 739v-739h-283zM158 1563q10 8 37 16q23 8 67 15.5t115 13.5q43 2 94.5 -2t101.5 -12.5t98 -16.5t85 -12q18 -2 44 -4t50.5 -2t47 1t36.5 7l21 -199q2 0 -16.5 -6t-48 -12 t-66.5 -10t-72 0q-39 2 -93 10t-108.5 15t-102.5 12.5t-73 5.5q-86 -2 -120.5 -13.5t-36.5 -7.5z" />
<glyph unicode="&#xd2;" horiz-adv-x="1210" d="M88 494v311q12 137 72 246q25 45 63.5 90t93 79.5t127 56t168.5 21.5q117 0 214.5 -33.5t169 -97t114.5 -154.5t49 -206v-154q0 -66 2 -147q0 -14 -3 -57t-19.5 -100.5t-50 -121t-94 -116t-152.5 -87t-224 -34.5q-131 0 -222 36.5t-149.5 92t-91 121t-47 121t-17.5 93.5 t-3 40zM375 565l2 -21q2 -22 9 -54.5t22.5 -69.5t42 -70t68.5 -54.5t104 -21.5q63 0 111 25t80 64.5t47.5 92t15.5 109.5l-5 140q0 10 -2 36.5t-9 61.5t-22.5 71.5t-43 67.5t-69.5 51.5t-103 20.5q-68 0 -115 -29t-77 -73t-43 -98t-13 -105v-144zM397 1649h266l117 -281 h-229l-78 139q-29 53 -52.5 96.5t-23.5 45.5z" />
<glyph unicode="&#xd3;" horiz-adv-x="1210" d="M88 494v311q12 137 72 246q25 45 63.5 90t93 79.5t127 56t168.5 21.5q117 0 214.5 -33.5t169 -97t114.5 -154.5t49 -206v-154q0 -66 2 -147q0 -14 -3 -57t-19.5 -100.5t-50 -121t-94 -116t-152.5 -87t-224 -34.5q-131 0 -222 36.5t-149.5 92t-91 121t-47 121t-17.5 93.5 t-3 40zM375 565l2 -21q2 -22 9 -54.5t22.5 -69.5t42 -70t68.5 -54.5t104 -21.5q63 0 111 25t80 64.5t47.5 92t15.5 109.5l-5 140q0 10 -2 36.5t-9 61.5t-22.5 71.5t-43 67.5t-69.5 51.5t-103 20.5q-68 0 -115 -29t-77 -73t-43 -98t-13 -105v-144zM442 1368l117 281l266 -2 l-154 -279h-229z" />
<glyph unicode="&#xd4;" horiz-adv-x="1210" d="M88 494v311q12 137 72 246q25 45 63.5 90t93 79.5t127 56t168.5 21.5q117 0 214.5 -33.5t169 -97t114.5 -154.5t49 -206v-154q0 -66 2 -147q0 -14 -3 -57t-19.5 -100.5t-50 -121t-94 -116t-152.5 -87t-224 -34.5q-131 0 -222 36.5t-149.5 92t-91 121t-47 121t-17.5 93.5 t-3 40zM375 565l2 -21q2 -22 9 -54.5t22.5 -69.5t42 -70t68.5 -54.5t104 -21.5q63 0 111 25t80 64.5t47.5 92t15.5 109.5l-5 140q0 10 -2 36.5t-9 61.5t-22.5 71.5t-43 67.5t-69.5 51.5t-103 20.5q-68 0 -115 -29t-77 -73t-43 -98t-13 -105v-144zM383 1368l137 279l166 2 l140 -281h-170l-52 92l-51 -92h-170z" />
<glyph unicode="&#xd5;" horiz-adv-x="1210" d="M88 494v311q12 137 72 246q25 45 63.5 90t93 79.5t127 56t168.5 21.5q117 0 214.5 -33.5t169 -97t114.5 -154.5t49 -206v-154q0 -66 2 -147q0 -14 -3 -57t-19.5 -100.5t-50 -121t-94 -116t-152.5 -87t-224 -34.5q-131 0 -222 36.5t-149.5 92t-91 121t-47 121t-17.5 93.5 t-3 40zM260 1569q10 8 37 16q23 8 67 15.5t115 13.5q43 2 94.5 -2t101.5 -12.5t98 -16.5t85 -12q18 -2 44 -4t50.5 -2t47 1t36.5 7l21 -199q2 0 -16.5 -6t-48 -12t-66.5 -10t-72 0q-39 2 -93 10t-108.5 15t-102.5 12.5t-73 5.5q-86 -2 -120.5 -13.5t-36.5 -7.5zM375 565 l2 -21q2 -22 9 -54.5t22.5 -69.5t42 -70t68.5 -54.5t104 -21.5q63 0 111 25t80 64.5t47.5 92t15.5 109.5l-5 140q0 10 -2 36.5t-9 61.5t-22.5 71.5t-43 67.5t-69.5 51.5t-103 20.5q-68 0 -115 -29t-77 -73t-43 -98t-13 -105v-144z" />
<glyph unicode="&#xd6;" horiz-adv-x="1210" d="M88 494v311q12 137 72 246q25 45 63.5 90t93 79.5t127 56t168.5 21.5q117 0 214.5 -33.5t169 -97t114.5 -154.5t49 -206v-154q0 -66 2 -147q0 -14 -3 -57t-19.5 -100.5t-50 -121t-94 -116t-152.5 -87t-224 -34.5q-131 0 -222 36.5t-149.5 92t-91 121t-47 121t-17.5 93.5 t-3 40zM268 1440v178h195v-178h-195zM375 565l2 -21q2 -22 9 -54.5t22.5 -69.5t42 -70t68.5 -54.5t104 -21.5q63 0 111 25t80 64.5t47.5 92t15.5 109.5l-5 140q0 10 -2 36.5t-9 61.5t-22.5 71.5t-43 67.5t-69.5 51.5t-103 20.5q-68 0 -115 -29t-77 -73t-43 -98t-13 -105 v-144zM747 1440v178h195v-178h-195z" />
<glyph unicode="&#xd7;" horiz-adv-x="997" d="M29 291l301 377l-301 387l321 2l146 -183l145 183l322 -2l-304 -387l304 -377l-338 4l-129 164l-129 -164z" />
<glyph unicode="&#xd8;" horiz-adv-x="1210" d="M88 512v311q12 137 74 248q25 45 63.5 90t94 80t129 55.5t169.5 20.5q23 0 45.5 -2t43.5 -4l18 45h283l-52 -133q72 -51 113 -117t60.5 -125t24.5 -103t5 -53v-153q0 -66 2 -148q0 -12 -3 -56t-19.5 -100.5t-50 -120t-94 -115.5t-152.5 -88t-224 -36q-35 0 -66.5 2 t-59.5 8l-7 -18h-282l49 129q-61 55 -94 121.5t-49 126.5q-18 68 -21 135zM375 610q0 -37 1 -48t2 -4t1 15q0 -27 12 -81l209 538q-92 -8 -137 -55t-66 -103q-23 -66 -22 -145v-117zM598 295q8 -2 25 -2q82 -2 132 30.5t77.5 79t36 96.5t8.5 85l-5 139q0 29 -4 59 q-4 27 -11 57.5t-23 63.5z" />
<glyph unicode="&#xd9;" horiz-adv-x="1150" d="M66 512v780h288v-708q0 -55 12.5 -107.5t39 -93.5t69.5 -65.5t103 -24.5q63 0 108 23.5t73.5 61.5t43 88t14.5 105v721h285v-768q0 -14 -2 -57t-17.5 -101.5t-47 -123t-90 -118.5t-148.5 -89t-224 -35q-115 0 -209 37t-160.5 104.5t-102 161.5t-35.5 209zM369 1649h266 l117 -281h-229l-78 139q-29 53 -52.5 96.5t-23.5 45.5z" />
<glyph unicode="&#xda;" horiz-adv-x="1150" d="M66 512v780h288v-708q0 -55 12.5 -107.5t39 -93.5t69.5 -65.5t103 -24.5q63 0 108 23.5t73.5 61.5t43 88t14.5 105v721h285v-768q0 -14 -2 -57t-17.5 -101.5t-47 -123t-90 -118.5t-148.5 -89t-224 -35q-115 0 -209 37t-160.5 104.5t-102 161.5t-35.5 209zM414 1368 l117 281l266 -2l-154 -279h-229z" />
<glyph unicode="&#xdb;" horiz-adv-x="1150" d="M66 512v780h288v-708q0 -55 12.5 -107.5t39 -93.5t69.5 -65.5t103 -24.5q63 0 108 23.5t73.5 61.5t43 88t14.5 105v721h285v-768q0 -14 -2 -57t-17.5 -101.5t-47 -123t-90 -118.5t-148.5 -89t-224 -35q-115 0 -209 37t-160.5 104.5t-102 161.5t-35.5 209zM354 1368 l137 279l166 2l140 -281h-170l-52 92l-51 -92h-170z" />
<glyph unicode="&#xdc;" horiz-adv-x="1150" d="M66 512v780h288v-708q0 -55 12.5 -107.5t39 -93.5t69.5 -65.5t103 -24.5q63 0 108 23.5t73.5 61.5t43 88t14.5 105v721h285v-768q0 -14 -2 -57t-17.5 -101.5t-47 -123t-90 -118.5t-148.5 -89t-224 -35q-115 0 -209 37t-160.5 104.5t-102 161.5t-35.5 209zM237 1440v178 h195v-178h-195zM716 1440v178h195v-178h-195z" />
<glyph unicode="&#xdd;" horiz-adv-x="1081" d="M35 1290h276q-2 -4 20.5 -46t58.5 -108.5t79 -146.5t84 -158q37 80 75 162t68.5 147.5t50 107.5t19.5 40h289q-109 -207 -191 -368q-35 -70 -69.5 -136.5t-61 -119t-41.5 -84.5l-16 -33l-2 -543h-283v580q-4 6 -20.5 39.5t-42 84t-57 113t-64.5 127.5q-78 152 -172 342z M379 1368l117 281l266 -2l-154 -279h-229z" />
<glyph unicode="&#xde;" horiz-adv-x="980" d="M78 0l4 1370h283l-9 -205h189q113 -10 200 -55q37 -18 74 -48t64.5 -71t44 -96t14.5 -127q-4 -129 -39 -215t-89 -139.5t-121.5 -76t-135.5 -22.5h-209l2 -313zM360 530q86 -20 154 -2q29 8 56.5 23.5t49 44.5t35 72t13.5 104q0 63 -22.5 100t-56.5 55.5t-73 21.5 t-72.5 0t-45.5 -7l-33 -10q0 -2 -1.5 -64.5t-1.5 -138.5q-2 -88 -2 -199z" />
<glyph unicode="&#xdf;" horiz-adv-x="1103" d="M61 2v1108q0 -2 4.5 18.5t18.5 50t42 63.5t75 62.5t115.5 45t164.5 12.5q82 -4 151.5 -23.5t119 -54.5t78 -88t30.5 -127t-13.5 -121t-40 -77.5t-54 -49t-54 -35t-41 -35t-14.5 -46.5q2 -33 17.5 -47.5t37 -19.5t43 -4t35.5 1t61.5 -9.5t97.5 -44t88 -104t36 -190.5 q-2 -82 -42 -139.5t-101.5 -91t-135 -47t-144.5 -9.5t-129 23.5t-89 52.5l211 200q20 -14 43 -20q18 -6 39.5 -4t38.5 20q16 18 17 42t-12.5 46.5t-38 39t-57.5 20.5t-78.5 18.5t-87.5 43t-72 72.5t-30 105q0 76 21.5 140.5t81.5 91.5q29 12 46 39.5t17 77.5 q0 43 -24.5 70.5t-58.5 39.5t-69.5 10t-60.5 -18v-1108h-283z" />
<glyph unicode="&#xe0;" horiz-adv-x="978" d="M73 283q0 84 42 139t100.5 88t123 46t111.5 13q92 0 162 80v21q0 12 -3 34.5t-14.5 44t-34 37t-63.5 15.5t-67.5 -16.5t-42 -38t-23.5 -44t-10 -32.5q-2 -4 -2 -8v-5q-6 0 -46 19.5t-87 42.5q-53 27 -121 63q27 72 80 129q47 47 129 88t211 41q66 0 117 -14t89 -36.5 t63.5 -51.5t43.5 -59q41 -70 49 -160v-416q0 -43 6.5 -73.5t16.5 -30.5q23 0 32 4t17 10l12 4l37 -82q-4 -20 -17.5 -43.5t-34 -43t-48 -33t-62.5 -13.5q-72 0 -109.5 26.5t-66.5 57.5q-43 -35 -97 -61.5t-132 -26.5q-90 0 -157.5 21.5t-113 60.5t-68 91t-22.5 112z M283 1397h266l117 -281h-229l-78 139q-29 53 -52.5 96.5t-23.5 45.5zM352 279q0 -47 26 -65.5t87 -20.5q94 0 143 59q0 10 1 30.5t1 49.5q0 23 1 42t1 54q-16 -12 -41 -22.5t-59 -14.5q-92 -10 -126 -32.5t-34 -79.5z" />
<glyph unicode="&#xe1;" horiz-adv-x="978" d="M73 283q0 84 42 139t100.5 88t123 46t111.5 13q92 0 162 80v21q0 12 -3 34.5t-14.5 44t-34 37t-63.5 15.5t-67.5 -16.5t-42 -38t-23.5 -44t-10 -32.5q-2 -4 -2 -8v-5q-6 0 -46 19.5t-87 42.5q-53 27 -121 63q27 72 80 129q47 47 129 88t211 41q66 0 117 -14t89 -36.5 t63.5 -51.5t43.5 -59q41 -70 49 -160v-416q0 -43 6.5 -73.5t16.5 -30.5q23 0 32 4t17 10l12 4l37 -82q-4 -20 -17.5 -43.5t-34 -43t-48 -33t-62.5 -13.5q-72 0 -109.5 26.5t-66.5 57.5q-43 -35 -97 -61.5t-132 -26.5q-90 0 -157.5 21.5t-113 60.5t-68 91t-22.5 112z M328 1116l117 281l266 -2l-154 -279h-229zM352 279q0 -47 26 -65.5t87 -20.5q94 0 143 59q0 10 1 30.5t1 49.5q0 23 1 42t1 54q-16 -12 -41 -22.5t-59 -14.5q-92 -10 -126 -32.5t-34 -79.5z" />
<glyph unicode="&#xe2;" horiz-adv-x="978" d="M73 283q0 84 42 139t100.5 88t123 46t111.5 13q92 0 162 80v21q0 12 -3 34.5t-14.5 44t-34 37t-63.5 15.5t-67.5 -16.5t-42 -38t-23.5 -44t-10 -32.5q-2 -4 -2 -8v-5q-6 0 -46 19.5t-87 42.5q-53 27 -121 63q27 72 80 129q47 47 129 88t211 41q66 0 117 -14t89 -36.5 t63.5 -51.5t43.5 -59q41 -70 49 -160v-416q0 -43 6.5 -73.5t16.5 -30.5q23 0 32 4t17 10l12 4l37 -82q-4 -20 -17.5 -43.5t-34 -43t-48 -33t-62.5 -13.5q-72 0 -109.5 26.5t-66.5 57.5q-43 -35 -97 -61.5t-132 -26.5q-90 0 -157.5 21.5t-113 60.5t-68 91t-22.5 112z M268 1116l137 279l166 2l140 -281h-170l-52 92l-51 -92h-170zM352 279q0 -47 26 -65.5t87 -20.5q94 0 143 59q0 10 1 30.5t1 49.5q0 23 1 42t1 54q-16 -12 -41 -22.5t-59 -14.5q-92 -10 -126 -32.5t-34 -79.5z" />
<glyph unicode="&#xe3;" horiz-adv-x="978" d="M73 283q0 84 42 139t100.5 88t123 46t111.5 13q92 0 162 80v21q0 12 -3 34.5t-14.5 44t-34 37t-63.5 15.5t-67.5 -16.5t-42 -38t-23.5 -44t-10 -32.5q-2 -4 -2 -8v-5q-6 0 -46 19.5t-87 42.5q-53 27 -121 63q27 72 80 129q47 47 129 88t211 41q66 0 117 -14t89 -36.5 t63.5 -51.5t43.5 -59q41 -70 49 -160v-416q0 -43 6.5 -73.5t16.5 -30.5q23 0 32 4t17 10l12 4l37 -82q-4 -20 -17.5 -43.5t-34 -43t-48 -33t-62.5 -13.5q-72 0 -109.5 26.5t-66.5 57.5q-43 -35 -97 -61.5t-132 -26.5q-90 0 -157.5 21.5t-113 60.5t-68 91t-22.5 112z M145 1317q10 8 37 16q23 8 67 15.5t115 13.5q43 2 94.5 -2t101.5 -12.5t98 -16.5t85 -12q18 -2 44 -4t50.5 -2t47 1t36.5 7l21 -199q2 0 -16.5 -6t-48 -12t-66.5 -10t-72 0q-39 2 -93 10t-108.5 15t-102.5 12.5t-73 5.5q-86 -2 -120.5 -13.5t-36.5 -7.5zM352 279 q0 -47 26 -65.5t87 -20.5q94 0 143 59q0 10 1 30.5t1 49.5q0 23 1 42t1 54q-16 -12 -41 -22.5t-59 -14.5q-92 -10 -126 -32.5t-34 -79.5z" />
<glyph unicode="&#xe4;" horiz-adv-x="978" d="M73 283q0 84 42 139t100.5 88t123 46t111.5 13q92 0 162 80v21q0 12 -3 34.5t-14.5 44t-34 37t-63.5 15.5t-67.5 -16.5t-42 -38t-23.5 -44t-10 -32.5q-2 -4 -2 -8v-5q-6 0 -46 19.5t-87 42.5q-53 27 -121 63q27 72 80 129q47 47 129 88t211 41q66 0 117 -14t89 -36.5 t63.5 -51.5t43.5 -59q41 -70 49 -160v-416q0 -43 6.5 -73.5t16.5 -30.5q23 0 32 4t17 10l12 4l37 -82q-4 -20 -17.5 -43.5t-34 -43t-48 -33t-62.5 -13.5q-72 0 -109.5 26.5t-66.5 57.5q-43 -35 -97 -61.5t-132 -26.5q-90 0 -157.5 21.5t-113 60.5t-68 91t-22.5 112z M151 1188v178h195v-178h-195zM352 279q0 -47 26 -65.5t87 -20.5q94 0 143 59q0 10 1 30.5t1 49.5q0 23 1 42t1 54q-16 -12 -41 -22.5t-59 -14.5q-92 -10 -126 -32.5t-34 -79.5zM630 1188v178h195v-178h-195z" />
<glyph unicode="&#xe5;" horiz-adv-x="978" d="M73 283q0 84 42 139t100.5 88t123 46t111.5 13q92 0 162 80v21q0 12 -3 34.5t-14.5 44t-34 37t-63.5 15.5t-67.5 -16.5t-42 -38t-23.5 -44t-10 -32.5q-2 -4 -2 -8v-5q-6 0 -46 19.5t-87 42.5q-53 27 -121 63q27 72 80 129q47 47 129 88t211 41q66 0 117 -14t89 -36.5 t63.5 -51.5t43.5 -59q41 -70 49 -160v-416q0 -43 6.5 -73.5t16.5 -30.5q23 0 32 4t17 10l12 4l37 -82q-4 -20 -17.5 -43.5t-34 -43t-48 -33t-62.5 -13.5q-72 0 -109.5 26.5t-66.5 57.5q-43 -35 -97 -61.5t-132 -26.5q-90 0 -157.5 21.5t-113 60.5t-68 91t-22.5 112z M290 1155q0 84 58.5 142.5t142.5 58.5t142.5 -58.5t58.5 -142.5t-58.5 -142.5t-142.5 -58.5t-142.5 58.5t-58.5 142.5zM352 279q0 -47 26 -65.5t87 -20.5q94 0 143 59q0 10 1 30.5t1 49.5q0 23 1 42t1 54q-16 -12 -41 -22.5t-59 -14.5q-92 -10 -126 -32.5t-34 -79.5z M411 1161q0 -35 24.5 -59.5t59.5 -24.5t59.5 24.5t24.5 59.5t-24.5 59.5t-59.5 24.5t-59.5 -24.5t-24.5 -59.5z" />
<glyph unicode="&#xe6;" horiz-adv-x="1519" d="M39 317q-23 121 16 195t123 88l418 4l-6 55q-23 41 -58.5 75t-82.5 30q-45 -4 -72 -20.5t-41 -34.5q-16 -23 -23 -47q-70 37 -123 67q-47 27 -84.5 48.5t-37.5 23.5l4 19q4 18 16 45.5t38 58t69 56.5t107.5 43t154.5 17q117 -2 191.5 -31.5t119.5 -72.5q47 45 118 74.5 t171 31.5q63 0 133 -17t128 -68.5t96 -144.5t38 -243l-47 -104l-498 8q4 -20 6 -54t15.5 -65.5t43 -55.5t87.5 -24q68 0 97.5 29t39.5 70l258 -140q-18 -43 -47 -86t-76 -78.5t-114.5 -58t-161.5 -22.5q-76 0 -142 16v-4h-245l-33 18l-10 68q-35 -35 -83 -60.5t-114 -23.5 q-92 0 -159.5 27.5t-116 71.5t-76 100.5t-37.5 115.5zM295 348q0 -14 21.5 -30.5t51 -27.5t63.5 -15.5t61 8.5q47 20 71.5 34.5t36.5 24.5q14 10 18 18v37h-299q-6 -2 -12 -10q-4 -6 -9 -15.5t-3 -23.5zM944 659l227 -6l-12 40t-18.5 36t-31.5 26.5t-50 10.5q-59 -4 -82 -35 t-33 -72z" />
<glyph unicode="&#xe7;" horiz-adv-x="845" d="M29 397v252q0 88 34.5 162t93 127t137.5 83t165 30q113 0 188.5 -32t122.5 -77t71.5 -98t35.5 -96q-72 -23 -125 -43q-47 -16 -86 -32t-39 -18q-4 20 -15.5 47t-32 49.5t-50 38t-66.5 15.5q-51 0 -79 -37t-42 -80q-16 -51 -18 -115v-112q2 -61 18 -111q14 -41 41 -75.5 t80 -34.5q72 0 124 22.5t62 63.5l209 -93q-53 -125 -159.5 -185t-245.5 -60q-80 0 -140.5 17.5t-105.5 46t-75 65.5t-50 76q-47 90 -53 204zM275 -233l24 83q29 -4 53 -8q23 -4 43.5 -4t30.5 4q20 8 22.5 17.5t-4 15.5t-17.5 10t-19 2h-129l2 125h133v-39q27 2 54.5 0 t49 -12t35.5 -30.5t12 -55.5q-2 -41 -15 -66.5t-33.5 -41t-47 -21.5t-53.5 -6q-63 0 -141 27z" />
<glyph unicode="&#xe8;" horiz-adv-x="923" d="M29 397v252q6 111 55 197q20 37 52 71.5t79 62.5t109.5 45t146.5 17q201 0 296 -108.5t95 -306.5v-191h-536q0 -53 5 -92t21.5 -64.5t46 -38t76.5 -12.5q66 0 116 34t101 81l166 -111q-29 -66 -77 -110.5t-109.5 -72t-132 -40t-146.5 -12.5q-137 0 -210.5 42 t-107.5 103.5t-40 131t-6 122.5zM254 1397h266l117 -281h-229l-78 139q-29 53 -52.5 96.5t-23.5 45.5zM328 586h274q0 29 -2 67.5t-15.5 72.5t-42 57.5t-79.5 23.5q-49 -2 -77 -20.5t-41 -48t-15 -69.5t-2 -83z" />
<glyph unicode="&#xe9;" horiz-adv-x="923" d="M29 397v252q6 111 55 197q20 37 52 71.5t79 62.5t109.5 45t146.5 17q201 0 296 -108.5t95 -306.5v-191h-536q0 -53 5 -92t21.5 -64.5t46 -38t76.5 -12.5q66 0 116 34t101 81l166 -111q-29 -66 -77 -110.5t-109.5 -72t-132 -40t-146.5 -12.5q-137 0 -210.5 42 t-107.5 103.5t-40 131t-6 122.5zM299 1116l117 281l266 -2l-154 -279h-229zM328 586h274q0 29 -2 67.5t-15.5 72.5t-42 57.5t-79.5 23.5q-49 -2 -77 -20.5t-41 -48t-15 -69.5t-2 -83z" />
<glyph unicode="&#xea;" horiz-adv-x="923" d="M29 397v252q6 111 55 197q20 37 52 71.5t79 62.5t109.5 45t146.5 17q201 0 296 -108.5t95 -306.5v-191h-536q0 -53 5 -92t21.5 -64.5t46 -38t76.5 -12.5q66 0 116 34t101 81l166 -111q-29 -66 -77 -110.5t-109.5 -72t-132 -40t-146.5 -12.5q-137 0 -210.5 42 t-107.5 103.5t-40 131t-6 122.5zM239 1116l137 279l166 2l140 -281h-170l-52 92l-51 -92h-170zM328 586h274q0 29 -2 67.5t-15.5 72.5t-42 57.5t-79.5 23.5q-49 -2 -77 -20.5t-41 -48t-15 -69.5t-2 -83z" />
<glyph unicode="&#xeb;" horiz-adv-x="923" d="M29 397v252q6 111 55 197q20 37 52 71.5t79 62.5t109.5 45t146.5 17q201 0 296 -108.5t95 -306.5v-191h-536q0 -53 5 -92t21.5 -64.5t46 -38t76.5 -12.5q66 0 116 34t101 81l166 -111q-29 -66 -77 -110.5t-109.5 -72t-132 -40t-146.5 -12.5q-137 0 -210.5 42 t-107.5 103.5t-40 131t-6 122.5zM125 1188v178h195v-178h-195zM328 586h274q0 29 -2 67.5t-15.5 72.5t-42 57.5t-79.5 23.5q-49 -2 -77 -20.5t-41 -48t-15 -69.5t-2 -83zM604 1188v178h195v-178h-195z" />
<glyph unicode="&#xec;" horiz-adv-x="452" d="M18 1397h266l117 -281h-229l-78 139q-29 53 -52.5 96.5t-23.5 45.5zM96 0v1038h283v-1038h-283z" />
<glyph unicode="&#xed;" horiz-adv-x="452" d="M63 1116l117 281l266 -2l-154 -279h-229zM96 0v1038h283v-1038h-283z" />
<glyph unicode="&#xee;" horiz-adv-x="452" d="M8 1116l137 279l166 2l140 -281h-170l-52 92l-51 -92h-170zM96 0v1038h283v-1038h-283z" />
<glyph unicode="&#xef;" horiz-adv-x="452" d="M-109 1188v178h195v-178h-195zM96 0v1038h283v-1038h-283zM370 1188v178h195v-178h-195z" />
<glyph unicode="&#xf0;" horiz-adv-x="958" d="M31 403v252q10 113 59 201q20 37 52 74t76 64.5t104.5 45t138.5 17.5l43 -8l-23 45l-47 -31q-16 23 -31 41q-12 16 -22 28.5t-12 12.5t15 12t44 29q-27 37 -37 41l166 125l57 -41q16 10 30.5 19t25.5 18q12 8 22 14l66 -82l-62 -41q72 -74 113 -154.5t61.5 -157.5 t25.5 -147.5t5 -122.5v-122q0 -53 2 -121q0 -12 -3 -47t-16.5 -81t-41 -97.5t-76.5 -94.5t-124 -71.5t-181 -28.5q-80 0 -141.5 16.5t-107.5 45t-77 65.5t-51 76q-47 90 -53 206zM319 467q4 -53 21 -94q14 -35 43 -63.5t82 -28.5t84 18t47 46t20.5 60.5t4.5 61.5v113 q-4 53 -23 96q-16 35 -47 65.5t-86 30.5q-51 -4 -80 -33.5t-43 -64.5q-18 -41 -23 -94v-113z" />
<glyph unicode="&#xf1;" horiz-adv-x="1007" d="M66 0v1036h282v-67q4 4 21.5 15t45 22.5t62.5 20.5t72 9q43 0 108.5 -10t127 -46t105.5 -103.5t44 -182.5v-694h-283v623q0 8 -4 32.5t-20.5 51t-49 47t-92.5 20.5q-53 0 -86.5 -24.5t-50.5 -57.5v-692h-282zM86 1286q10 8 37 16q23 8 67 15.5t115 13.5q43 2 94.5 -2 t101.5 -12.5t98 -16.5t85 -12q18 -2 44 -4t50.5 -2t47 1t36.5 7l21 -199q2 0 -16.5 -6t-48 -12t-66.5 -10t-72 0q-39 2 -93 10t-108.5 15t-102.5 12.5t-73 5.5q-86 -2 -120.5 -13.5t-36.5 -7.5z" />
<glyph unicode="&#xf2;" horiz-adv-x="983" d="M49 403v252q10 109 60 195q20 37 50.5 71.5t75 62.5t103.5 45.5t137 17.5q190 0 310 -101.5t135 -288.5v-122q0 -53 2 -121q0 -12 -3.5 -47t-16.5 -81t-40.5 -97.5t-77 -94.5t-124 -71.5t-181.5 -28.5q-92 0 -171 29.5t-136 84t-90 129t-33 166.5zM285 1397h266l117 -281 h-229l-78 139q-29 53 -52.5 96.5t-23.5 45.5zM338 467q2 -61 20 -111q14 -41 44 -75.5t83 -34.5q49 0 80 22.5t47.5 55t21.5 71.5t5 72v113q-4 68 -23 120q-16 47 -47 85t-86 38q-51 -4 -79.5 -42t-43.5 -83q-18 -53 -22 -118v-113z" />
<glyph unicode="&#xf3;" horiz-adv-x="983" d="M49 403v252q10 109 60 195q20 37 50.5 71.5t75 62.5t103.5 45.5t137 17.5q190 0 310 -101.5t135 -288.5v-122q0 -53 2 -121q0 -12 -3.5 -47t-16.5 -81t-40.5 -97.5t-77 -94.5t-124 -71.5t-181.5 -28.5q-92 0 -171 29.5t-136 84t-90 129t-33 166.5zM330 1116l117 281 l266 -2l-154 -279h-229zM338 467q2 -61 20 -111q14 -41 44 -75.5t83 -34.5q49 0 80 22.5t47.5 55t21.5 71.5t5 72v113q-4 68 -23 120q-16 47 -47 85t-86 38q-51 -4 -79.5 -42t-43.5 -83q-18 -53 -22 -118v-113z" />
<glyph unicode="&#xf4;" horiz-adv-x="983" d="M49 403v252q10 109 60 195q20 37 50.5 71.5t75 62.5t103.5 45.5t137 17.5q190 0 310 -101.5t135 -288.5v-122q0 -53 2 -121q0 -12 -3.5 -47t-16.5 -81t-40.5 -97.5t-77 -94.5t-124 -71.5t-181.5 -28.5q-92 0 -171 29.5t-136 84t-90 129t-33 166.5zM270 1116l137 279 l166 2l140 -281h-170l-52 92l-51 -92h-170zM338 467q2 -61 20 -111q14 -41 44 -75.5t83 -34.5q49 0 80 22.5t47.5 55t21.5 71.5t5 72v113q-4 68 -23 120q-16 47 -47 85t-86 38q-51 -4 -79.5 -42t-43.5 -83q-18 -53 -22 -118v-113z" />
<glyph unicode="&#xf5;" horiz-adv-x="983" d="M49 403v252q10 109 60 195q20 37 50.5 71.5t75 62.5t103.5 45.5t137 17.5q190 0 310 -101.5t135 -288.5v-122q0 -53 2 -121q0 -12 -3.5 -47t-16.5 -81t-40.5 -97.5t-77 -94.5t-124 -71.5t-181.5 -28.5q-92 0 -171 29.5t-136 84t-90 129t-33 166.5zM147 1317q10 8 37 16 q23 8 67 15.5t115 13.5q43 2 94.5 -2t101.5 -12.5t98 -16.5t85 -12q18 -2 44 -4t50.5 -2t47 1t36.5 7l21 -199q2 0 -16.5 -6t-48 -12t-66.5 -10t-72 0q-39 2 -93 10t-108.5 15t-102.5 12.5t-73 5.5q-86 -2 -120.5 -13.5t-36.5 -7.5zM338 467q2 -61 20 -111q14 -41 44 -75.5 t83 -34.5q49 0 80 22.5t47.5 55t21.5 71.5t5 72v113q-4 68 -23 120q-16 47 -47 85t-86 38q-51 -4 -79.5 -42t-43.5 -83q-18 -53 -22 -118v-113z" />
<glyph unicode="&#xf6;" horiz-adv-x="983" d="M49 403v252q10 109 60 195q20 37 50.5 71.5t75 62.5t103.5 45.5t137 17.5q190 0 310 -101.5t135 -288.5v-122q0 -53 2 -121q0 -12 -3.5 -47t-16.5 -81t-40.5 -97.5t-77 -94.5t-124 -71.5t-181.5 -28.5q-92 0 -171 29.5t-136 84t-90 129t-33 166.5zM153 1188v178h195v-178 h-195zM338 467q2 -61 20 -111q14 -41 44 -75.5t83 -34.5q49 0 80 22.5t47.5 55t21.5 71.5t5 72v113q-4 68 -23 120q-16 47 -47 85t-86 38q-51 -4 -79.5 -42t-43.5 -83q-18 -53 -22 -118v-113zM632 1188v178h195v-178h-195z" />
<glyph unicode="&#xf7;" horiz-adv-x="1214" d="M129 618v230h967v-230h-967zM492 195v262h282v-262h-282zM492 971v262h282v-262h-282z" />
<glyph unicode="&#xf8;" horiz-adv-x="983" d="M49 403v252q10 113 60 201q20 37 52 74t76 64.5t104 45t138 17.5q37 0 74 -6l49 108h283l-90 -213q43 -43 67.5 -91t36.5 -90t16.5 -71.5t4.5 -36.5v-122q0 -53 2 -121q0 -12 -3.5 -47t-16.5 -81t-40.5 -97.5t-77 -94.5t-124 -71.5t-181.5 -28.5h-26.5t-22.5 2l-27 -70 h-282l63 166q-51 45 -78.5 99.5t-39.5 101.5q-14 55 -17 110zM338 467q4 -53 20 -94q14 -35 43 -63.5t82 -28.5t84 18t47.5 46t20.5 60.5t4 61.5v113q-4 53 -23 96q-16 35 -47 65.5t-86 30.5q-51 -4 -79.5 -33.5t-43.5 -64.5q-18 -41 -22 -94v-113z" />
<glyph unicode="&#xf9;" horiz-adv-x="972" d="M51 342v694h283v-622q0 -8 3 -33t19.5 -51.5t50 -47t93.5 -20.5q61 0 99 20.5t38 61.5v692h283v-1036h-283v68q-4 -4 -21.5 -15.5t-45 -23t-62.5 -20.5t-72 -9q-43 0 -108.5 10t-127 45t-105.5 103.5t-44 183.5zM295 1397h266l117 -281h-229l-78 139q-29 53 -52.5 96.5 t-23.5 45.5z" />
<glyph unicode="&#xfa;" horiz-adv-x="972" d="M51 342v694h283v-622q0 -8 3 -33t19.5 -51.5t50 -47t93.5 -20.5q61 0 99 20.5t38 61.5v692h283v-1036h-283v68q-4 -4 -21.5 -15.5t-45 -23t-62.5 -20.5t-72 -9q-43 0 -108.5 10t-127 45t-105.5 103.5t-44 183.5zM295 1116l117 281l266 -2l-154 -279h-229z" />
<glyph unicode="&#xfb;" horiz-adv-x="972" d="M51 342v694h283v-622q0 -8 3 -33t19.5 -51.5t50 -47t93.5 -20.5q61 0 99 20.5t38 61.5v692h283v-1036h-283v68q-4 -4 -21.5 -15.5t-45 -23t-62.5 -20.5t-72 -9q-43 0 -108.5 10t-127 45t-105.5 103.5t-44 183.5zM264 1116l137 279l166 2l140 -281h-170l-52 92l-51 -92 h-170z" />
<glyph unicode="&#xfc;" horiz-adv-x="972" d="M51 342v694h283v-622q0 -8 3 -33t19.5 -51.5t50 -47t93.5 -20.5q61 0 99 20.5t38 61.5v692h283v-1036h-283v68q-4 -4 -21.5 -15.5t-45 -23t-62.5 -20.5t-72 -9q-43 0 -108.5 10t-127 45t-105.5 103.5t-44 183.5zM149 1188v178h195v-178h-195zM628 1188v178h195v-178h-195 z" />
<glyph unicode="&#xfd;" horiz-adv-x="921" d="M33 1034h262l170 -665l178 667h264l-315 -1024q-6 -72 -33 -127q-23 -47 -73 -87t-142 -40q-59 0 -105 14.5t-79 33t-49.5 35t-16.5 20.5t10.5 27.5t22.5 50.5l33 69q14 -16 30 -28q14 -10 31 -18.5t35 -8.5q20 0 44 9t24 50zM299 1116l117 281l266 -2l-154 -279h-229z " />
<glyph unicode="&#xfe;" horiz-adv-x="1001" d="M80 1356h282l5 -346q23 18 61.5 26t71.5 13q25 2 67.5 -1.5t94 -16.5t103.5 -38.5t95 -69.5t68.5 -109.5t25.5 -156.5q-2 -66 -2 -118v-86v-72q-8 -92 -45 -168q-31 -66 -94 -126t-176 -77q-94 -14 -166 10.5t-109 67.5l5 -326h-283v240h-2zM362 488.5q0 -25.5 3 -44.5 q2 -18 6 -44.5t18 -51t41 -44t74 -21.5q55 -2 84.5 22.5t45 55t18.5 57.5l3 26v150q0 31 -7 62.5t-24.5 58t-47 43t-74.5 14.5q-49 -2 -77 -30.5t-41 -61.5t-16 -59.5t-3 -24.5t0 -15.5t-1.5 -42t-1.5 -50z" />
<glyph unicode="&#xff;" horiz-adv-x="921" d="M33 1034h262l170 -665l178 667h264l-315 -1024q-6 -72 -33 -127q-23 -47 -73 -87t-142 -40q-59 0 -105 14.5t-79 33t-49.5 35t-16.5 20.5t10.5 27.5t22.5 50.5l33 69q14 -16 30 -28q14 -10 31 -18.5t35 -8.5q20 0 44 9t24 50zM123 1188v178h195v-178h-195zM602 1188v178 h195v-178h-195z" />
<glyph unicode="&#x152;" horiz-adv-x="1751" d="M66 510v311q12 137 73 248q25 45 64 90t94 80t129 55.5t170 20.5q86 -2 152.5 -17.5t119.5 -40.5v35h801v-264h-518v-297l354 -2v-264l-354 2l2 -205l516 2v-264h-801v61q-53 -25 -119.5 -40t-152.5 -15q-100 0 -176 20.5t-132.5 56.5t-94 81t-62.5 92q-57 113 -65 254z M352 607q0 -38 1 -48t2 -3t1 15q0 -18 8.5 -64t33 -93t72.5 -84t130 -39t132 30.5t78 78.5t36 96.5t8 85.5l-4 139q0 88 -27 156q-12 29 -29.5 56.5t-45 49t-63.5 34.5t-85 13q-98 -2 -149.5 -49t-73.5 -104q-25 -68 -25 -152v-118z" />
<glyph unicode="&#x153;" horiz-adv-x="1495" d="M35 403v252q10 113 59 201q20 37 52 74t76 64.5t104.5 45t138.5 17.5q115 -2 190.5 -33t124.5 -78q47 41 115 67.5t164 28.5q63 0 133 -17t128 -68.5t96 -144.5t38 -243l-47 -104l-498 8q4 -20 6.5 -54t15.5 -65.5t43 -55.5t87 -24q68 0 97.5 29t39.5 70l258 -140 q-18 -43 -47 -86t-76 -78.5t-114.5 -58t-161.5 -22.5q-104 0 -176 27.5t-119 70.5q-49 -41 -121 -65.5t-176 -26.5q-80 0 -141.5 16.5t-107.5 45t-76.5 65.5t-51.5 76q-47 90 -53 206zM324 467q4 -53 20 -94q14 -35 43 -63.5t82 -28.5t84 18t47 46t20.5 60.5t4.5 61.5v113 q-4 53 -23 96q-16 35 -47 65.5t-86 30.5q-51 -4 -80 -33.5t-43 -64.5q-18 -41 -22 -94v-113zM946 659l228 -6q-6 20 -12.5 40t-19 36t-31.5 26.5t-50 10.5q-59 -4 -82 -35t-33 -72z" />
<glyph unicode="&#x178;" horiz-adv-x="1081" d="M35 1290h276q-2 -4 20.5 -46t58.5 -108.5t79 -146.5t84 -158q37 80 75 162t68.5 147.5t50 107.5t19.5 40h289q-109 -207 -191 -368q-35 -70 -69.5 -136.5t-61 -119t-41.5 -84.5l-16 -33l-2 -543h-283v580q-4 6 -20.5 39.5t-42 84t-57 113t-64.5 127.5q-78 152 -172 342z M203 1440v178h195v-178h-195zM682 1440v178h195v-178h-195z" />
<glyph unicode="&#x2c6;" horiz-adv-x="591" d="M49 1116l137 279l166 2l140 -281h-170l-52 92l-51 -92h-170z" />
<glyph unicode="&#x2dc;" horiz-adv-x="821" d="M6 1317q10 8 37 16q23 8 67 15.5t115 13.5q43 2 94.5 -2t101.5 -12.5t98 -16.5t85 -12q18 -2 44 -4t50.5 -2t47 1t36.5 7l21 -199q2 0 -16.5 -6t-48 -12t-66.5 -10t-72 0q-39 2 -93 10t-108.5 15t-102.5 12.5t-73 5.5q-86 -2 -120.5 -13.5t-36.5 -7.5z" />
<glyph unicode="&#x2000;" horiz-adv-x="824" />
<glyph unicode="&#x2001;" horiz-adv-x="1649" />
<glyph unicode="&#x2002;" horiz-adv-x="824" />
<glyph unicode="&#x2003;" horiz-adv-x="1649" />
<glyph unicode="&#x2004;" horiz-adv-x="549" />
<glyph unicode="&#x2005;" horiz-adv-x="412" />
<glyph unicode="&#x2006;" horiz-adv-x="274" />
<glyph unicode="&#x2007;" horiz-adv-x="274" />
<glyph unicode="&#x2008;" horiz-adv-x="206" />
<glyph unicode="&#x2009;" horiz-adv-x="329" />
<glyph unicode="&#x200a;" horiz-adv-x="91" />
<glyph unicode="&#x2010;" horiz-adv-x="1097" d="M51 524v230h967v-230h-967z" />
<glyph unicode="&#x2011;" horiz-adv-x="1097" d="M51 524v230h967v-230h-967z" />
<glyph unicode="&#x2012;" horiz-adv-x="1097" d="M51 524v230h967v-230h-967z" />
<glyph unicode="&#x2013;" horiz-adv-x="1038" d="M51 524v230h889v-230h-889z" />
<glyph unicode="&#x2014;" horiz-adv-x="1556" d="M51 524v230h1405v-230h-1405z" />
<glyph unicode="&#x2018;" horiz-adv-x="376" d="M51 889v262q4 27 15 51q10 23 27.5 45.5t47.5 40.5l133 -43q-2 -4 -10 -14t-14 -23.5t-6 -29t12 -27.5h78v-262h-283z" />
<glyph unicode="&#x2019;" horiz-adv-x="405" d="M51 1026v262h283v-262q-4 -27 -15 -51q-10 -23 -27.5 -46.5t-47.5 -39.5l-133 43q2 4 10 14t14 23.5t6 29t-12 27.5h-78z" />
<glyph unicode="&#x201a;" horiz-adv-x="1705" />
<glyph unicode="&#x201c;" horiz-adv-x="806" d="M47 891v262q4 27 14 51q10 23 27.5 45.5t48.5 40.5l133 -43q-2 -4 -10 -14t-14 -23.5t-6 -29t12 -27.5h78v-262h-283zM410 889v262q4 27 14 51q10 23 27.5 45.5t48.5 40.5l133 -43q-2 -4 -10.5 -14t-14.5 -23.5t-6 -29t12 -27.5h78v-262h-282z" />
<glyph unicode="&#x201d;" horiz-adv-x="735" d="M47 1028v262h283v-262q-4 -27 -15 -51q-10 -23 -27.5 -46.5t-47.5 -39.5l-134 43q2 4 10.5 14t14.5 23.5t6 29t-12 27.5h-78zM410 1026v262h282v-262q-4 -27 -14 -51q-10 -23 -27.5 -46.5t-48.5 -39.5l-133 43q2 4 10 14t14.5 23.5t6.5 29t-13 27.5h-77z" />
<glyph unicode="&#x201e;" horiz-adv-x="776" d="M47 2v262h283v-262q-4 -27 -15 -51q-10 -23 -27.5 -46.5t-47.5 -39.5l-134 43q2 4 10.5 14t14.5 23.5t6 29t-12 27.5h-78zM410 0v262h282v-262q-4 -27 -14 -51q-10 -23 -27.5 -46.5t-48.5 -39.5l-133 43q2 4 10 14t14.5 23.5t6.5 29t-13 27.5h-77z" />
<glyph unicode="&#x2022;" horiz-adv-x="724" d="M61 604q0 59 22.5 112.5t62.5 93.5t93.5 62.5t112.5 22.5t112.5 -22.5t93.5 -62.5t62.5 -93t22.5 -113q0 -59 -22.5 -112.5t-62.5 -93.5t-93 -62.5t-113 -22.5q-59 0 -112.5 22.5t-93.5 62.5t-62.5 93.5t-22.5 112.5z" />
<glyph unicode="&#x2026;" horiz-adv-x="1069" d="M47 0v262h283v-262h-283zM403 0v262h283v-262h-283zM760 0v262h282v-262h-282z" />
<glyph unicode="&#x202f;" horiz-adv-x="329" />
<glyph unicode="&#x2039;" horiz-adv-x="919" d="M45 496l526 536h287l-512 -540l508 -533h-291z" />
<glyph unicode="&#x203a;" horiz-adv-x="1017" d="M45 1032h287l526 -536l-518 -537h-291l508 533z" />
<glyph unicode="&#x205f;" horiz-adv-x="412" />
<glyph unicode="&#x20ac;" horiz-adv-x="1062" d="M29 387v229h157q-2 23 -2 44.5v46.5h-151v229h155q8 76 32 132t57.5 97t72.5 68t80 45q94 39 209 43q80 0 140.5 -17.5t104.5 -46t74.5 -66.5t51.5 -77l-217 -125q-8 12 -28 17.5t-42.5 6.5t-46 1h-39.5q-25 0 -47 -8q-20 -8 -43 -23.5t-41 -46.5h299v-229h-338 q0 -25 -1 -46.5t1 -44.5h334v-229h-303q16 -41 48 -70.5t87 -27.5q43 -2 82 4q35 4 70.5 13t62.5 30l176 -133q-20 -45 -48 -77t-58.5 -55.5t-64.5 -38t-65 -22.5q-74 -20 -155 -14q-127 0 -208 49t-130 113.5t-70.5 130t-27.5 98.5h-168z" />
<glyph unicode="&#x25fc;" horiz-adv-x="1034" d="M0 0v1034h1034v-1034h-1034z" />
</font>
</defs>
</svg>
